<svg id="Layer_1" data-name="Layer 1" xmlns="https://www.w3.org/2000/svg" viewBox="0 0 1753 447"><defs><radialGradient id="radial-gradient" cx="60.67" cy="-1406.14" r="695.88" gradientTransform="matrix(.12 0 0 -.12 246.43 75.92)" gradientUnits="userSpaceOnUse"><stop offset="0" stop-color="#ed1b23"/><stop offset="1" stop-color="#fff"/></radialGradient><clipPath id="clip-path"><path class="cls-1" d="M522.12 86.9a83.16 83.16 0 00-38.5 16 130.69 130.69 0 00-14.52 13.82c-2.06 2.15-3 2.89-3.51 2.67-2-.92-5 .31-9.91 4-5.4 4-18.11 16-28.07 26.53-5.31 5.48-9.87 10.08-10.13 10.08-.75 0-1.27 7.5-.62 8.73.44.88.18 1.23-2.72 4-2.71 2.59-3.37 3-4.29 2.76a15.26 15.26 0 00-2.64-.3c-1.18 0-1.53.13-1.75.88-.13.52-4.39 5.26-9.43 10.52-11.45 11.89-13.9 14.52-17 18.25-3.46 4.16-3.59 4.47-2.54 6.22a12.11 12.11 0 001.8 2.24c.88.79.88.79-1.45 3.24a84.6 84.6 0 00-12.67 18.25c-7.8 20.4-9.21 26.38-7.37 52.41a80.84 80.84 0 0027.76 47.27c21.53 18.11 51.36 23.6 78.59 14.52 8-2.68 19.69-9.12 25.21-13.9l2-1.71-20.22-.38c-11.09-.18-24.42-.26-29.6-.22-10.22.13-13.9-.26-20.39-2.06a60.94 60.94 0 01-42.85-44.26c-1.36-5.08-1.4-5.57-1.4-14.47 0-8.68 0-9.51 1.23-14.21 2.67-10.7 6.71-18.37 14.34-27.23 2-2.28 2.76-2.94 3.42-2.76 2 .52 8.2-4.39 18.42-14.48 8.69-8.62 15.39-16.56 15.39-18.31a4.15 4.15 0 00-.88-1.62l-.92-1.14 2.06-2.07 8.33 4.91c4.57 2.72 8.91 5.27 9.65 5.66 5.54 3.26 11.06 6.58 16.58 9.87 5.92 3.51 8.55 5.26 8.11 5.48a12.36 12.36 0 01-2.59.66c-1.09.13-4.91.75-8.55 1.31-8.59 1.41-21.53 3.21-25.48 3.56l-3.11.3-1-3c-1-3-2.85-5.44-4.08-5.44-.83 0-1.8 1.14-1.4 1.71.13.27.26 5.18.26 10.88s.13 10.79.22 11.18c.48 1.71 8 .62 9.91-1.35 1-1.15 5.52-2.11 6.49-1.41 1.36 1 1.93 1.05 5.66.31a39.61 39.61 0 015.79-.7 12.86 12.86 0 003.42-.49c1.27-.44 1.53-.39 2.54.53 1.32 1.27 2.76 3.95 2.76 5.22a10.11 10.11 0 002.28 5.13c.92 1 .92 1 .09 1-2.68 0-15.27 8-19 12.1a11 11 0 00-3.29 7.2c-.35 3.15-1.36 8.77-2.5 14.25-1.44 7-1.44 6.58-.13 7.63 1.75 1.36 1.36 3.33-1.67 8-2.59 4-3 4.26-7.1 5-2.24.39-4.83 1.71-5.66 2.94-1.05 1.44-.88 3.28.31 3.94s8.11.53 12.41-.35a21.64 21.64 0 014.56-.61c4.39.35 7.5.17 7.94-.44.57-.93 0-5.84-1-8.78s-1.06-4.42 0-5.83a10.15 10.15 0 001.31-4.16c.44-3.07 1.63-6 4.83-11.67 1.23-2.19 1.49-3.2 1.71-6.36l.26-3.77 1.71-.57a50.74 50.74 0 015.7-1.23 29.28 29.28 0 005.27-1.32c1.88-.92 2.15-.79 3.68 1.36 2.28 3.25 3.55 3.78 8.42 3.64 3.51-.13 4.38-.3 5.61-1.14a2.94 2.94 0 001.41-2 3.13 3.13 0 012.5-2.64 1.77 1.77 0 001.09-1.27c.22-1.49 2.94-1.23 7.37.79 4.78 2.15 8 2.46 13.11 1.14a16.7 16.7 0 005.09-2c1.58-1.19 2-.93 2 1.49 0 2.19 5 5.74 7.15 5 1.23-.39.75-2.59-1.18-5.53-1.8-2.71-2.46-4.56-2-5.79.26-.74.35-.7 1.27.44a12.24 12.24 0 011.58 2.68c1 2.32 2.28 2.85 6.67 2.72 3.29-.13 4.08-.35 5.3-1.27 3-2.24 4.13-6.23 2.94-10.31-1-3.64-1.75-4.43-5.7-6.36a33.63 33.63 0 01-4.91-2.85c-1.36-1.14-1.36-1.14-1.67-.26-.35 1.14-2.89 1.27-3.72.26s-2.37-.66-2.55.88c-.26 2.28-1.84 3.16-1.84 1a29.77 29.77 0 00-1.75-5.22c-2-5-2.15-6.76-.71-9.82a54.64 54.64 0 018-12.07 15.8 15.8 0 002.72-3.5c.35-.83 2.41-2.2 8.46-5.44 4.43-2.41 10.13-5.48 12.68-6.84s6.4-3.47 8.55-4.61 8.59-4.6 14.25-7.67c14.43-7.81 18.77-10.09 19-10.09.57 0 .18 2.68-1 7-3.5 12.81-7.72 19.43-21.7 34.21-1.5 1.58-5.88 6.31-9.78 10.52s-8 8.77-9.26 10.09a14.89 14.89 0 00-2.28 2.72 10.84 10.84 0 001.49 2.41c.79 1.19 1.89 2.94 2.42 3.95 1.14 2.28 3.11 9.78 3.11 11.93 0 1.79.7 3.15 1.23 2.41.17-.26 2.5-2.85 5.13-5.7s7.59-8.16 11-11.8 7.2-7.76 8.56-9.21 4.64-5.09 7.41-8C628.73 184.68 622 119.3 567.93 94a90.47 90.47 0 00-22.8-7 155.14 155.14 0 00-23 0zm21.53 20.44a56.94 56.94 0 0116.76 5.52 59.78 59.78 0 0126.93 26.32c1.18 2.41 2.58 5.43 3.11 6.75a86.87 86.87 0 013.38 12.76l.26 2-2.32 1.53c-17.72 12.13-35.35 24.39-53.2 36.32a50.28 50.28 0 01-7.46 4.38c-1 .31-2.72.88-3.94 1.32a24.83 24.83 0 01-7.06 1.75 6.9 6.9 0 00-2.81.88 20.07 20.07 0 01-9.65 3c-2.54.27-8.55 1.37-13.38 2.46s-9.86 2.19-11.18 2.46a14.31 14.31 0 00-3.2.92c-1.14.61-2-.27-2.59-2.59a7.84 7.84 0 00-2.11-3.6 7.18 7.18 0 01-1.84-2.45c-.26-1.45-1.4-1-2.32 1-.48 1-1 1.8-1.19 1.75s-4.69-4.34-10-9.51-10.47-10.14-15.74-15.18l1.88-1.36c2.85-2.06 11.67-10.61 15.09-14.69 5.35-6.27 5.83-7.76 3.86-11.14l-1.1-1.84 3-2.81c12-11.49 11.44-10.87 11.18-12.23-.18-1 0-1.45 1.14-2.41s1.41-1.45 1.27-2.64.36-2 5.05-7.14c12.15-13.38 22.89-19.21 40.65-22.11 3.42-.57 12.9-.26 17.59.57zm50.66 62.27c-.18 2.06-.53 3.95-.83 4.21s-2.68 1.62-5.35 3-6.89 3.68-9.43 5-6.1 3.29-7.9 4.26l-9.21 4.95c-31.31 17-29.64 16.1-28.81 14.87a4.24 4.24 0 00.75-1.93c0-.66 3.42-3.16 13.94-10.18 7.63-5.13 18.07-12.1 23.11-15.52q11.61-7.91 23.25-15.75l.35 1.63a25.11 25.11 0 01.13 5.39zm-170 1.32c-.3.61-.3.87 0 .87s.44-.26.49-.57.08-.34.21 0a.89.89 0 001.06.31c.52-.13.87 0 .87.35s.14.44.27.26.61.09 1 .44c.7.62.7.88.22 3.07a8.06 8.06 0 01-1.14 2.94c-.35.31-1.75 1.58-3.11 2.85l-2.5 2.33-1.67-1a17.91 17.91 0 01-2.59-2c-.79-.83-.83-1-.22-1.41s.62-.48 0-.26c-1.58.53-.7-.74 3.29-4.82 2.19-2.28 4.08-4.17 4.16-4.17a2.21 2.21 0 01-.35.83zm-4.38 14.16c.57.22.52.26-.05.26a1.74 1.74 0 01-1.27-.61c-.3-.35-.74-.52-1-.35s-.3 0-.13-.26.53-.4 1 .08a6 6 0 001.41.88zm15.17 1.23c1.19 1.09 4.3 1.23 6.14.26l1.27-.66 9 8.64c6.12 5.85 12.18 11.74 18.24 17.63q-9-5.33-18-10.65c-3.86-2.28-9.47-5.57-12.5-7.37s-6.31-3.68-7.32-4.34l-1.84-1.14 1.58-1.63c1.88-1.93 2.15-2 3.46-.74zm85.69 21.44c0 .22-.74.62-1.62.84-2.11.61-2.45.61-2.11 0 .62-1 3.73-1.71 3.73-.84zm1.19 2.5c.88 2.64-5.94 2.15-7.15 2.64-1.49.56-.13-.75 2.15-2.07s4.69-1.62 5-.57zm-9.87 2.11c-.83.61-7.89 1.75-8.33 1.36-.22-.22 6.88-1.93 8.24-2h1.06l-1 .66zm8.25 1.84a31.08 31.08 0 01-3.34 4.08c-1.8 2.06-3.86 4.6-4.6 5.7-1.15 1.75-1.49 1.93-2.72 1.8a2.66 2.66 0 01-1.71-.62c-.22-.35-1.1-.3-3.07.09a41.43 41.43 0 01-4.83.79c-1.18.13-2.1.39-2.1.66 0 .49 7.67 8.3 8.9 9.56l-1.71-.05c-4.65 0-5.87-.57-8.46-3.46a19.24 19.24 0 00-4-3.47c-1.76-.78-2.2-2.45-.66-2.45.48 0 .92.26.92.52s.09.75.13 1 .88.44 1.93.44h1.85l-1.1-.88c-1.27-1-.88-1.66 1.45-2.45 1.09-.4 1.4-.75 1.4-1.67 0-1.27.18-1.4 7.5-6.1 4.43-2.85 4.43-2.85 8.77-3.29 2.37-.22 4.61-.44 4.92-.48s.52.09.52.26zm-24.69.44a17.48 17.48 0 01-3.07 0c-.75-.09 0-.18 1.66-.18s2.33.09 1.41.18zm-5.22.44a4.42 4.42 0 01-1.54 0c-.98-.3 2.45-.3 1.55 0zm16 .92c-1.89 1.4-5.4 3.2-5.4 2.72a6.49 6.49 0 01.66-1.75c.53-1.06 1-1.32 2.5-1.45l2.54-.22c.44-.05.31.22-.3.7zm-6.28.4a16.92 16.92 0 01-1.44 2.93L497.3 222l-4.12 1.27c-4.52 1.4-4.17 1.49-5.79-1.41a2.84 2.84 0 00-2.24-1.57c-1.71-.36-4.47-1.89-4.08-2.28s13.77-1.76 17.06-1.85c1.14 0 2.06.09 2.06.27zM475.63 219a2.41 2.41 0 001.63.66c.88 0 1 .13.57.83a2.2 2.2 0 00-.13 1.58c.22.61.08.7-.79.44a35.91 35.91 0 00-6.4-1.54 4 4 0 01-2.11-1l-1.14-1.09 1.45-.18c3.59-.44 6.4-.31 6.93.35zm-20.78 1.89c-.66 1-5.13 2.76-8 3-3.81.3-5.92 1-6.66 2s-4.08 1.1-5.05 0c-.7-.74-.7-.88.27-1.75 1.31-1.27 11.66-3.38 17.1-3.55 1.41 0 2.46.13 2.33.3zm23.42 3.85c0 .66-2.2 3.69-2.68 3.69-.31 0-2.62-3.34-3-3.9 1-.15 5.7-1 5.7.21zm2.41 1.93c.17.57-.27 1.54-1.41 3.07l-1.66 2.2-.75-1c-.79-1.09-.83-1 1.8-4 1.27-1.4 1.67-1.49 2-.31zm26.75 0c.4.6-3.12.33-3.51.31.45-.09 3.06-.6 3.16-.7a.77.77 0 01.35.39zm-24.12 1.76c.26.44-3.2 5.7-3.77 5.7a2.21 2.21 0 01-.84-.66c-.43-.53-.13-1 1.58-3.07 2.15-2.46 2.55-2.72 3-2zm26.8 3c.13 3.55-.27 3.9-2.37 2.24s-5.35-4.87-5.18-5.18a16.16 16.16 0 013.82-.26h3.64l.09 3.16zm-25.75 5c0 .22-.13.35-.39.35s-.44-.53-.4-1.23c0-1 .05-1.09.4-.3a4.31 4.31 0 01.39 1.18zm39.43 21.53a14 14 0 002.06 3.25c1.76 2.06 1.93 2.76.66 2.76s-3.86-2.46-4.17-3.9.09-3.56.62-3.56c.18 0 .53.66.83 1.45zm-34.91 3.6a3.94 3.94 0 01-.53 1.71c-.7.7-1.75-.13-1.75-1.4 0-1.54.35-1.93 1.53-1.76.71.09.84.4.75 1.45zm-2.68 2.68c1.47 1.79-4.86 2.19-4.86.65 0-.83.39-1 3.55-1.27a1.76 1.76 0 011.31.62z"/></clipPath><style>.cls-1{fill:none}</style></defs><g id="_3222490819440" data-name="3222490819440"><path d="M0 0h1753v447H0z"/><path d="M522.12 86.9a83.16 83.16 0 00-38.5 16 130.69 130.69 0 00-14.52 13.82c-2.06 2.15-3 2.89-3.51 2.67-2-.92-5 .31-9.91 4-5.4 4-18.11 16-28.07 26.53-5.31 5.48-9.87 10.08-10.13 10.08-.75 0-1.27 7.5-.62 8.73.44.88.18 1.23-2.72 4-2.71 2.59-3.37 3-4.29 2.76a15.26 15.26 0 00-2.64-.3c-1.18 0-1.53.13-1.75.88-.13.52-4.39 5.26-9.43 10.52-11.45 11.89-13.9 14.52-17 18.25-3.46 4.16-3.59 4.47-2.54 6.22a12.11 12.11 0 001.8 2.24c.88.79.88.79-1.45 3.24a84.6 84.6 0 00-12.67 18.25c-7.8 20.4-9.21 26.38-7.37 52.41a80.84 80.84 0 0027.76 47.27c21.53 18.11 51.36 23.6 78.59 14.52 8-2.68 19.69-9.12 25.21-13.9l2-1.71-20.22-.38c-11.09-.18-24.42-.26-29.6-.22-10.22.13-13.9-.26-20.39-2.06a60.94 60.94 0 01-42.85-44.26c-1.36-5.08-1.4-5.57-1.4-14.47 0-8.68 0-9.51 1.23-14.21 2.67-10.7 6.71-18.37 14.34-27.23 2-2.28 2.76-2.94 3.42-2.76 2 .52 8.2-4.39 18.42-14.48 8.69-8.62 15.39-16.56 15.39-18.31a4.15 4.15 0 00-.88-1.62l-.92-1.14 2.06-2.07 8.33 4.91c4.57 2.72 8.91 5.27 9.65 5.66 5.54 3.26 11.06 6.58 16.58 9.87 5.92 3.51 8.55 5.26 8.11 5.48a12.36 12.36 0 01-2.59.66c-1.09.13-4.91.75-8.55 1.31-8.59 1.41-21.53 3.21-25.48 3.56l-3.11.3-1-3c-1-3-2.85-5.44-4.08-5.44-.83 0-1.8 1.14-1.4 1.71.13.27.26 5.18.26 10.88s.13 10.79.22 11.18c.48 1.71 8 .62 9.91-1.35 1-1.15 5.52-2.11 6.49-1.41 1.36 1 1.93 1.05 5.66.31a39.61 39.61 0 015.79-.7 12.86 12.86 0 003.42-.49c1.27-.44 1.53-.39 2.54.53 1.32 1.27 2.76 3.95 2.76 5.22a10.11 10.11 0 002.28 5.13c.92 1 .92 1 .09 1-2.68 0-15.27 8-19 12.1a11 11 0 00-3.29 7.2c-.35 3.15-1.36 8.77-2.5 14.25-1.44 7-1.44 6.58-.13 7.63 1.75 1.36 1.36 3.33-1.67 8-2.59 4-3 4.26-7.1 5-2.24.39-4.83 1.71-5.66 2.94-1.05 1.44-.88 3.28.31 3.94s8.11.53 12.41-.35a21.64 21.64 0 014.56-.61c4.39.35 7.5.17 7.94-.44.57-.93 0-5.84-1-8.78s-1.06-4.42 0-5.83a10.15 10.15 0 001.31-4.16c.44-3.07 1.63-6 4.83-11.67 1.23-2.19 1.49-3.2 1.71-6.36l.26-3.77 1.71-.57a50.74 50.74 0 015.7-1.23 29.28 29.28 0 005.27-1.32c1.88-.92 2.15-.79 3.68 1.36 2.28 3.25 3.55 3.78 8.42 3.64 3.51-.13 4.38-.3 5.61-1.14a2.94 2.94 0 001.41-2 3.13 3.13 0 012.5-2.64 1.77 1.77 0 001.09-1.27c.22-1.49 2.94-1.23 7.37.79 4.78 2.15 8 2.46 13.11 1.14a16.7 16.7 0 005.09-2c1.58-1.19 2-.93 2 1.49 0 2.19 5 5.74 7.15 5 1.23-.39.75-2.59-1.18-5.53-1.8-2.71-2.46-4.56-2-5.79.26-.74.35-.7 1.27.44a12.24 12.24 0 011.58 2.68c1 2.32 2.28 2.85 6.67 2.72 3.29-.13 4.08-.35 5.3-1.27 3-2.24 4.13-6.23 2.94-10.31-1-3.64-1.75-4.43-5.7-6.36a33.63 33.63 0 01-4.91-2.85c-1.36-1.14-1.36-1.14-1.67-.26-.35 1.14-2.89 1.27-3.72.26s-2.37-.66-2.55.88c-.26 2.28-1.84 3.16-1.84 1a29.77 29.77 0 00-1.75-5.22c-2-5-2.15-6.76-.71-9.82a54.64 54.64 0 018-12.07 15.8 15.8 0 002.72-3.5c.35-.83 2.41-2.2 8.46-5.44 4.43-2.41 10.13-5.48 12.68-6.84s6.4-3.47 8.55-4.61 8.59-4.6 14.25-7.67c14.43-7.81 18.77-10.09 19-10.09.57 0 .18 2.68-1 7-3.5 12.81-7.72 19.43-21.7 34.21-1.5 1.58-5.88 6.31-9.78 10.52s-8 8.77-9.26 10.09a14.89 14.89 0 00-2.28 2.72 10.84 10.84 0 001.49 2.41c.79 1.19 1.89 2.94 2.42 3.95 1.14 2.28 3.11 9.78 3.11 11.93 0 1.79.7 3.15 1.23 2.41.17-.26 2.5-2.85 5.13-5.7s7.59-8.16 11-11.8 7.2-7.76 8.56-9.21 4.64-5.09 7.41-8C628.73 184.68 622 119.3 567.93 94a90.47 90.47 0 00-22.8-7 155.14 155.14 0 00-23 0zm21.53 20.44a56.94 56.94 0 0116.76 5.52 59.78 59.78 0 0126.93 26.32c1.18 2.41 2.58 5.43 3.11 6.75a86.87 86.87 0 013.38 12.76l.26 2-2.32 1.53c-17.72 12.13-35.35 24.39-53.2 36.32a50.28 50.28 0 01-7.46 4.38c-1 .31-2.72.88-3.94 1.32a24.83 24.83 0 01-7.06 1.75 6.9 6.9 0 00-2.81.88 20.07 20.07 0 01-9.65 3c-2.54.27-8.55 1.37-13.38 2.46s-9.86 2.19-11.18 2.46a14.31 14.31 0 00-3.2.92c-1.14.61-2-.27-2.59-2.59a7.84 7.84 0 00-2.11-3.6 7.18 7.18 0 01-1.84-2.45c-.26-1.45-1.4-1-2.32 1-.48 1-1 1.8-1.19 1.75s-4.69-4.34-10-9.51-10.47-10.14-15.74-15.18l1.88-1.36c2.85-2.06 11.67-10.61 15.09-14.69 5.35-6.27 5.83-7.76 3.86-11.14l-1.1-1.84 3-2.81c12-11.49 11.44-10.87 11.18-12.23-.18-1 0-1.45 1.14-2.41s1.41-1.45 1.27-2.64.36-2 5.05-7.14c12.15-13.38 22.89-19.21 40.65-22.11 3.42-.57 12.9-.26 17.59.57zm50.66 62.27c-.18 2.06-.53 3.95-.83 4.21s-2.68 1.62-5.35 3-6.89 3.68-9.43 5-6.1 3.29-7.9 4.26l-9.21 4.95c-31.31 17-29.64 16.1-28.81 14.87a4.24 4.24 0 00.75-1.93c0-.66 3.42-3.16 13.94-10.18 7.63-5.13 18.07-12.1 23.11-15.52q11.61-7.91 23.25-15.75l.35 1.63a25.11 25.11 0 01.13 5.39zm-170 1.32c-.3.61-.3.87 0 .87s.44-.26.49-.57.08-.34.21 0a.89.89 0 001.06.31c.52-.13.87 0 .87.35s.14.44.27.26.61.09 1 .44c.7.62.7.88.22 3.07a8.06 8.06 0 01-1.14 2.94c-.35.31-1.75 1.58-3.11 2.85l-2.5 2.33-1.67-1a17.91 17.91 0 01-2.59-2c-.79-.83-.83-1-.22-1.41s.62-.48 0-.26c-1.58.53-.7-.74 3.29-4.82 2.19-2.28 4.08-4.17 4.16-4.17a2.21 2.21 0 01-.35.83zm-4.38 14.16c.57.22.52.26-.05.26a1.74 1.74 0 01-1.27-.61c-.3-.35-.74-.52-1-.35s-.3 0-.13-.26.53-.4 1 .08a6 6 0 001.41.88zm15.17 1.23c1.19 1.09 4.3 1.23 6.14.26l1.27-.66 9 8.64c6.12 5.85 12.18 11.74 18.24 17.63q-9-5.33-18-10.65c-3.86-2.28-9.47-5.57-12.5-7.37s-6.31-3.68-7.32-4.34l-1.84-1.14 1.58-1.63c1.88-1.93 2.15-2 3.46-.74zm85.69 21.44c0 .22-.74.62-1.62.84-2.11.61-2.45.61-2.11 0 .62-1 3.73-1.71 3.73-.84zm1.19 2.5c.88 2.64-5.94 2.15-7.15 2.64-1.49.56-.13-.75 2.15-2.07s4.69-1.62 5-.57zm-9.87 2.11c-.83.61-7.89 1.75-8.33 1.36-.22-.22 6.88-1.93 8.24-2h1.06l-1 .66zm8.25 1.84a31.08 31.08 0 01-3.34 4.08c-1.8 2.06-3.86 4.6-4.6 5.7-1.15 1.75-1.49 1.93-2.72 1.8a2.66 2.66 0 01-1.71-.62c-.22-.35-1.1-.3-3.07.09a41.43 41.43 0 01-4.83.79c-1.18.13-2.1.39-2.1.66 0 .49 7.67 8.3 8.9 9.56l-1.71-.05c-4.65 0-5.87-.57-8.46-3.46a19.24 19.24 0 00-4-3.47c-1.76-.78-2.2-2.45-.66-2.45.48 0 .92.26.92.52s.09.75.13 1 .88.44 1.93.44h1.85l-1.1-.88c-1.27-1-.88-1.66 1.45-2.45 1.09-.4 1.4-.75 1.4-1.67 0-1.27.18-1.4 7.5-6.1 4.43-2.85 4.43-2.85 8.77-3.29 2.37-.22 4.61-.44 4.92-.48s.52.09.52.26zm-24.69.44a17.48 17.48 0 01-3.07 0c-.75-.09 0-.18 1.66-.18s2.33.09 1.41.18zm-5.22.44a4.42 4.42 0 01-1.54 0c-.98-.3 2.45-.3 1.55 0zm16 .92c-1.89 1.4-5.4 3.2-5.4 2.72a6.49 6.49 0 01.66-1.75c.53-1.06 1-1.32 2.5-1.45l2.54-.22c.44-.05.31.22-.3.7zm-6.28.4a16.92 16.92 0 01-1.44 2.93L497.3 222l-4.12 1.27c-4.52 1.4-4.17 1.49-5.79-1.41a2.84 2.84 0 00-2.24-1.57c-1.71-.36-4.47-1.89-4.08-2.28s13.77-1.76 17.06-1.85c1.14 0 2.06.09 2.06.27zM475.63 219a2.41 2.41 0 001.63.66c.88 0 1 .13.57.83a2.2 2.2 0 00-.13 1.58c.22.61.08.7-.79.44a35.91 35.91 0 00-6.4-1.54 4 4 0 01-2.11-1l-1.14-1.09 1.45-.18c3.59-.44 6.4-.31 6.93.35zm-20.78 1.89c-.66 1-5.13 2.76-8 3-3.81.3-5.92 1-6.66 2s-4.08 1.1-5.05 0c-.7-.74-.7-.88.27-1.75 1.31-1.27 11.66-3.38 17.1-3.55 1.41 0 2.46.13 2.33.3zm23.42 3.85c0 .66-2.2 3.69-2.68 3.69-.31 0-2.62-3.34-3-3.9 1-.15 5.7-1 5.7.21zm2.41 1.93c.17.57-.27 1.54-1.41 3.07l-1.66 2.2-.75-1c-.79-1.09-.83-1 1.8-4 1.27-1.4 1.67-1.49 2-.31zm26.75 0c.4.6-3.12.33-3.51.31.45-.09 3.06-.6 3.16-.7a.77.77 0 01.35.39zm-24.12 1.76c.26.44-3.2 5.7-3.77 5.7a2.21 2.21 0 01-.84-.66c-.43-.53-.13-1 1.58-3.07 2.15-2.46 2.55-2.72 3-2zm26.8 3c.13 3.55-.27 3.9-2.37 2.24s-5.35-4.87-5.18-5.18a16.16 16.16 0 013.82-.26h3.64l.09 3.16zm-25.75 5c0 .22-.13.35-.39.35s-.44-.53-.4-1.23c0-1 .05-1.09.4-.3a4.31 4.31 0 01.39 1.18zm39.43 21.53a14 14 0 002.06 3.25c1.76 2.06 1.93 2.76.66 2.76s-3.86-2.46-4.17-3.9.09-3.56.62-3.56c.18 0 .53.66.83 1.45zm-34.91 3.6a3.94 3.94 0 01-.53 1.71c-.7.7-1.75-.13-1.75-1.4 0-1.54.35-1.93 1.53-1.76.71.09.84.4.75 1.45zm-2.68 2.68c1.47 1.79-4.86 2.19-4.86.65 0-.83.39-1 3.55-1.27a1.76 1.76 0 011.31.62z" fill-rule="evenodd" fill="#fff"/><g clip-path="url(#clip-path)"><circle cx="253.7" cy="244.51" r="50.65" fill="url(#radial-gradient)"/></g><path class="cls-1" d="M522.12 86.9a83.16 83.16 0 00-38.5 16 130.69 130.69 0 00-14.52 13.82c-2.06 2.15-3 2.89-3.51 2.67-2-.92-5 .31-9.91 4-5.4 4-18.11 16-28.07 26.53-5.31 5.48-9.87 10.08-10.13 10.08-.75 0-1.27 7.5-.62 8.73.44.88.18 1.23-2.72 4-2.71 2.59-3.37 3-4.29 2.76a15.26 15.26 0 00-2.64-.3c-1.18 0-1.53.13-1.75.88-.13.52-4.39 5.26-9.43 10.52-11.45 11.89-13.9 14.52-17 18.25-3.46 4.16-3.59 4.47-2.54 6.22a12.11 12.11 0 001.8 2.24c.88.79.88.79-1.45 3.24a84.6 84.6 0 00-12.67 18.25c-7.8 20.4-9.21 26.38-7.37 52.41a80.84 80.84 0 0027.76 47.27c21.53 18.11 51.36 23.6 78.59 14.52 8-2.68 19.69-9.12 25.21-13.9l2-1.71-20.22-.38c-11.09-.18-24.42-.26-29.6-.22-10.22.13-13.9-.26-20.39-2.06a60.94 60.94 0 01-42.85-44.26c-1.36-5.08-1.4-5.57-1.4-14.47 0-8.68 0-9.51 1.23-14.21 2.67-10.7 6.71-18.37 14.34-27.23 2-2.28 2.76-2.94 3.42-2.76 2 .52 8.2-4.39 18.42-14.48 8.69-8.62 15.39-16.56 15.39-18.31a4.15 4.15 0 00-.88-1.62l-.92-1.14 2.06-2.07 8.33 4.91c4.57 2.72 8.91 5.27 9.65 5.66 5.54 3.26 11.06 6.58 16.58 9.87 5.92 3.51 8.55 5.26 8.11 5.48a12.36 12.36 0 01-2.59.66c-1.09.13-4.91.75-8.55 1.31-8.59 1.41-21.53 3.21-25.48 3.56l-3.11.3-1-3c-1-3-2.85-5.44-4.08-5.44-.83 0-1.8 1.14-1.4 1.71.13.27.26 5.18.26 10.88s.13 10.79.22 11.18c.48 1.71 8 .62 9.91-1.35 1-1.15 5.52-2.11 6.49-1.41 1.36 1 1.93 1.05 5.66.31a39.61 39.61 0 015.79-.7 12.86 12.86 0 003.42-.49c1.27-.44 1.53-.39 2.54.53 1.32 1.27 2.76 3.95 2.76 5.22a10.11 10.11 0 002.28 5.13c.92 1 .92 1 .09 1-2.68 0-15.27 8-19 12.1a11 11 0 00-3.29 7.2c-.35 3.15-1.36 8.77-2.5 14.25-1.44 7-1.44 6.58-.13 7.63 1.75 1.36 1.36 3.33-1.67 8-2.59 4-3 4.26-7.1 5-2.24.39-4.83 1.71-5.66 2.94-1.05 1.44-.88 3.28.31 3.94s8.11.53 12.41-.35a21.64 21.64 0 014.56-.61c4.39.35 7.5.17 7.94-.44.57-.93 0-5.84-1-8.78s-1.06-4.42 0-5.83a10.15 10.15 0 001.31-4.16c.44-3.07 1.63-6 4.83-11.67 1.23-2.19 1.49-3.2 1.71-6.36l.26-3.77 1.71-.57a50.74 50.74 0 015.7-1.23 29.28 29.28 0 005.27-1.32c1.88-.92 2.15-.79 3.68 1.36 2.28 3.25 3.55 3.78 8.42 3.64 3.51-.13 4.38-.3 5.61-1.14a2.94 2.94 0 001.41-2 3.13 3.13 0 012.5-2.64 1.77 1.77 0 001.09-1.27c.22-1.49 2.94-1.23 7.37.79 4.78 2.15 8 2.46 13.11 1.14a16.7 16.7 0 005.09-2c1.58-1.19 2-.93 2 1.49 0 2.19 5 5.74 7.15 5 1.23-.39.75-2.59-1.18-5.53-1.8-2.71-2.46-4.56-2-5.79.26-.74.35-.7 1.27.44a12.24 12.24 0 011.58 2.68c1 2.32 2.28 2.85 6.67 2.72 3.29-.13 4.08-.35 5.3-1.27 3-2.24 4.13-6.23 2.94-10.31-1-3.64-1.75-4.43-5.7-6.36a33.63 33.63 0 01-4.91-2.85c-1.36-1.14-1.36-1.14-1.67-.26-.35 1.14-2.89 1.27-3.72.26s-2.37-.66-2.55.88c-.26 2.28-1.84 3.16-1.84 1a29.77 29.77 0 00-1.75-5.22c-2-5-2.15-6.76-.71-9.82a54.64 54.64 0 018-12.07 15.8 15.8 0 002.72-3.5c.35-.83 2.41-2.2 8.46-5.44 4.43-2.41 10.13-5.48 12.68-6.84s6.4-3.47 8.55-4.61 8.59-4.6 14.25-7.67c14.43-7.81 18.77-10.09 19-10.09.57 0 .18 2.68-1 7-3.5 12.81-7.72 19.43-21.7 34.21-1.5 1.58-5.88 6.31-9.78 10.52s-8 8.77-9.26 10.09a14.89 14.89 0 00-2.28 2.72 10.84 10.84 0 001.49 2.41c.79 1.19 1.89 2.94 2.42 3.95 1.14 2.28 3.11 9.78 3.11 11.93 0 1.79.7 3.15 1.23 2.41.17-.26 2.5-2.85 5.13-5.7s7.59-8.16 11-11.8 7.2-7.76 8.56-9.21 4.64-5.09 7.41-8C628.73 184.68 622 119.3 567.93 94a90.47 90.47 0 00-22.8-7 155.14 155.14 0 00-23 0zm21.53 20.44a56.94 56.94 0 0116.76 5.52 59.78 59.78 0 0126.93 26.32c1.18 2.41 2.58 5.43 3.11 6.75a86.87 86.87 0 013.38 12.76l.26 2-2.32 1.53c-17.72 12.13-35.35 24.39-53.2 36.32a50.28 50.28 0 01-7.46 4.38c-1 .31-2.72.88-3.94 1.32a24.83 24.83 0 01-7.06 1.75 6.9 6.9 0 00-2.81.88 20.07 20.07 0 01-9.65 3c-2.54.27-8.55 1.37-13.38 2.46s-9.86 2.19-11.18 2.46a14.31 14.31 0 00-3.2.92c-1.14.61-2-.27-2.59-2.59a7.84 7.84 0 00-2.11-3.6 7.18 7.18 0 01-1.84-2.45c-.26-1.45-1.4-1-2.32 1-.48 1-1 1.8-1.19 1.75s-4.69-4.34-10-9.51-10.47-10.14-15.74-15.18l1.88-1.36c2.85-2.06 11.67-10.61 15.09-14.69 5.35-6.27 5.83-7.76 3.86-11.14l-1.1-1.84 3-2.81c12-11.49 11.44-10.87 11.18-12.23-.18-1 0-1.45 1.14-2.41s1.41-1.45 1.27-2.64.36-2 5.05-7.14c12.15-13.38 22.89-19.21 40.65-22.11 3.42-.57 12.9-.26 17.59.57zm50.66 62.27c-.18 2.06-.53 3.95-.83 4.21s-2.68 1.62-5.35 3-6.89 3.68-9.43 5-6.1 3.29-7.9 4.26l-9.21 4.95c-31.31 17-29.64 16.1-28.81 14.87a4.24 4.24 0 00.75-1.93c0-.66 3.42-3.16 13.94-10.18 7.63-5.13 18.07-12.1 23.11-15.52q11.61-7.91 23.25-15.75l.35 1.63a25.11 25.11 0 01.13 5.39zm-170 1.32c-.3.61-.3.87 0 .87s.44-.26.49-.57.08-.34.21 0a.89.89 0 001.06.31c.52-.13.87 0 .87.35s.14.44.27.26.61.09 1 .44c.7.62.7.88.22 3.07a8.06 8.06 0 01-1.14 2.94c-.35.31-1.75 1.58-3.11 2.85l-2.5 2.33-1.67-1a17.91 17.91 0 01-2.59-2c-.79-.83-.83-1-.22-1.41s.62-.48 0-.26c-1.58.53-.7-.74 3.29-4.82 2.19-2.28 4.08-4.17 4.16-4.17a2.21 2.21 0 01-.35.83zm-4.38 14.16c.57.22.52.26-.05.26a1.74 1.74 0 01-1.27-.61c-.3-.35-.74-.52-1-.35s-.3 0-.13-.26.53-.4 1 .08a6 6 0 001.41.88zm15.17 1.23c1.19 1.09 4.3 1.23 6.14.26l1.27-.66 9 8.64c6.12 5.85 12.18 11.74 18.24 17.63q-9-5.33-18-10.65c-3.86-2.28-9.47-5.57-12.5-7.37s-6.31-3.68-7.32-4.34l-1.84-1.14 1.58-1.63c1.88-1.93 2.15-2 3.46-.74zm85.69 21.44c0 .22-.74.62-1.62.84-2.11.61-2.45.61-2.11 0 .62-1 3.73-1.71 3.73-.84zm1.19 2.5c.88 2.64-5.94 2.15-7.15 2.64-1.49.56-.13-.75 2.15-2.07s4.69-1.62 5-.57zm-9.87 2.11c-.83.61-7.89 1.75-8.33 1.36-.22-.22 6.88-1.93 8.24-2h1.06l-1 .66zm8.25 1.84a31.08 31.08 0 01-3.34 4.08c-1.8 2.06-3.86 4.6-4.6 5.7-1.15 1.75-1.49 1.93-2.72 1.8a2.66 2.66 0 01-1.71-.62c-.22-.35-1.1-.3-3.07.09a41.43 41.43 0 01-4.83.79c-1.18.13-2.1.39-2.1.66 0 .49 7.67 8.3 8.9 9.56l-1.71-.05c-4.65 0-5.87-.57-8.46-3.46a19.24 19.24 0 00-4-3.47c-1.76-.78-2.2-2.45-.66-2.45.48 0 .92.26.92.52s.09.75.13 1 .88.44 1.93.44h1.85l-1.1-.88c-1.27-1-.88-1.66 1.45-2.45 1.09-.4 1.4-.75 1.4-1.67 0-1.27.18-1.4 7.5-6.1 4.43-2.85 4.43-2.85 8.77-3.29 2.37-.22 4.61-.44 4.92-.48s.52.09.52.26zm-24.69.44a17.48 17.48 0 01-3.07 0c-.75-.09 0-.18 1.66-.18s2.33.09 1.41.18zm-5.22.44a4.42 4.42 0 01-1.54 0c-.98-.3 2.45-.3 1.55 0zm16 .92c-1.89 1.4-5.4 3.2-5.4 2.72a6.49 6.49 0 01.66-1.75c.53-1.06 1-1.32 2.5-1.45l2.54-.22c.44-.05.31.22-.3.7zm-6.28.4a16.92 16.92 0 01-1.44 2.93L497.3 222l-4.12 1.27c-4.52 1.4-4.17 1.49-5.79-1.41a2.84 2.84 0 00-2.24-1.57c-1.71-.36-4.47-1.89-4.08-2.28s13.77-1.76 17.06-1.85c1.14 0 2.06.09 2.06.27zM475.63 219a2.41 2.41 0 001.63.66c.88 0 1 .13.57.83a2.2 2.2 0 00-.13 1.58c.22.61.08.7-.79.44a35.91 35.91 0 00-6.4-1.54 4 4 0 01-2.11-1l-1.14-1.09 1.45-.18c3.59-.44 6.4-.31 6.93.35zm-20.78 1.89c-.66 1-5.13 2.76-8 3-3.81.3-5.92 1-6.66 2s-4.08 1.1-5.05 0c-.7-.74-.7-.88.27-1.75 1.31-1.27 11.66-3.38 17.1-3.55 1.41 0 2.46.13 2.33.3zm23.42 3.85c0 .66-2.2 3.69-2.68 3.69-.31 0-2.62-3.34-3-3.9 1-.15 5.7-1 5.7.21zm2.41 1.93c.17.57-.27 1.54-1.41 3.07l-1.66 2.2-.75-1c-.79-1.09-.83-1 1.8-4 1.27-1.4 1.67-1.49 2-.31zm26.75 0c.4.6-3.12.33-3.51.31.45-.09 3.06-.6 3.16-.7a.77.77 0 01.35.39zm-24.12 1.76c.26.44-3.2 5.7-3.77 5.7a2.21 2.21 0 01-.84-.66c-.43-.53-.13-1 1.58-3.07 2.15-2.46 2.55-2.72 3-2zm26.8 3c.13 3.55-.27 3.9-2.37 2.24s-5.35-4.87-5.18-5.18a16.16 16.16 0 013.82-.26h3.64l.09 3.16zm-25.75 5c0 .22-.13.35-.39.35s-.44-.53-.4-1.23c0-1 .05-1.09.4-.3a4.31 4.31 0 01.39 1.18zm39.43 21.53a14 14 0 002.06 3.25c1.76 2.06 1.93 2.76.66 2.76s-3.86-2.46-4.17-3.9.09-3.56.62-3.56c.18 0 .53.66.83 1.45zm-34.91 3.6a3.94 3.94 0 01-.53 1.71c-.7.7-1.75-.13-1.75-1.4 0-1.54.35-1.93 1.53-1.76.71.09.84.4.75 1.45zm-2.68 2.68c1.47 1.79-4.86 2.19-4.86.65 0-.83.39-1 3.55-1.27a1.76 1.76 0 011.31.62z"/><path d="M466.99 283.65h22.84l23.98 20.82 23.98-20.82h12.48v46.17h-15.88v-23.89l-20.58 17.9-20.65-17.9v23.89h-15.8v-34.26l-10.37-11.91zm107.58 0h25.93l31.02 46.17H613.7l-8.42-12.14h-22.53l-8.58 12.14h-17.75l16.29-24.22h24.71l-4.05-6.16h-16.29l4.78-7.37-7.29-8.42zm74.05 29.16h39.13v4.86h-50.07v12.16H695a7 7 0 003-.69 12.07 12.07 0 002.75-1.74 10.39 10.39 0 002.07-2.31 4.46 4.46 0 00.81-2.39v-12.56a9.55 9.55 0 00-.93-4.45 8.47 8.47 0 00-2.47-2.92 10 10 0 00-3.53-1.62 17.28 17.28 0 00-4.09-.48h-39v-4.86h50.06v-12.15h-57.4a6.87 6.87 0 00-2.88.68 11.31 11.31 0 00-2.75 1.79 12.11 12.11 0 00-2.11 2.34 4.3 4.3 0 00-.85 2.39v12.4a9.79 9.79 0 00.93 4.49 8.16 8.16 0 002.47 3 9.92 9.92 0 003.48 1.62 16.91 16.91 0 004.06.49zm94.94-17.09h-22.84l-10.54-12.07h74.54v12.07h-25.28v34.1h-15.88v-34.1zm47.31-12.07h26.33v46.17h-15.79v-34.1l-10.54-12.07zm96.13 34.1h-46.14v-22H887v-12.1h-62v36.13a8.83 8.83 0 003.44 7.33q3.45 2.72 9.52 2.71h49zm57.23-34.1h25.92l31.03 46.17h-17.82l-8.43-12.14h-22.52l-8.59 12.14h-17.74l16.29-24.22h24.7l-4.05-6.16h-16.28l4.78-7.37-7.29-8.42zm62.3 19.04h48.52v-7h-48.52L996 283.65h64.24a16.75 16.75 0 015.14.68 7.94 7.94 0 013.28 1.95 7.3 7.3 0 011.74 3 12.32 12.32 0 01.53 3.73v11.75a8.89 8.89 0 01-.93 4.09 11 11 0 01-2.39 3.16 10.46 10.46 0 01-3.32 2.06 9.89 9.89 0 01-3.65.73h-38.32v15.07h-15.79v-27.19zm78.25 0h48.53v-7h-48.53l-10.53-12.07h64.24a16.71 16.71 0 015.14.68 8.05 8.05 0 013.29 1.95 7.3 7.3 0 011.74 3 12.64 12.64 0 01.52 3.73v11.75a8.89 8.89 0 01-.93 4.09 11 11 0 01-2.38 3.16 10.51 10.51 0 01-3.33 2.06 9.84 9.84 0 01-3.64.73h-38.32v15.07h-15.8v-27.16zm133.59 27.13h-55.33v-34.1l-10.53-12.07h26.33v34.1h39.53v12.07zm-1.95-46.17h26.33v46.17h-15.79v-34.1l-10.54-12.07zm103.94 0v12.07h-60.92l-10.53-12.07h71.45zm-60.92 33.94h60.84v12.23h-60.84zm0-17h45.45v12.15h-45.45zm130.76-16.94q5.83 0 8.34 2.59a9.28 9.28 0 012.51 6.72v11.75a8.26 8.26 0 01-3.52 7.13q-3.52 2.51-9.69 2.59l15.48 15.39h-19.61l-15.55-15.06h-15.31v15.06h-15.8v-27.14h48.12v-7h-48.12l-10.53-12.07h63.68zM146.84 211.39h75l4.38-10.76h-75L142.46 182h99.27a21.36 21.36 0 017.51 1.07 7.29 7.29 0 013.88 3 7.48 7.48 0 01.88 4.57 21.28 21.28 0 01-1.5 5.76l-7.39 18.15a19.61 19.61 0 01-4 6.32 33.12 33.12 0 01-5.69 4.89 27.27 27.27 0 01-6.39 3.19 19 19 0 01-6.07 1.13h-59.23l-9.39 23.28h-24.41l16.9-41.94zM361.79 182q9 0 11.26 4t-.25 10.39l-7.39 18.15a21.47 21.47 0 01-9.89 11 34.58 34.58 0 01-16.52 4l14.27 23.78H323l-14.65-23.28h-23.68l-9.39 23.28h-24.42l16.9-41.94h74.37l4.38-10.76h-74.36L263.38 182h98.41zm330.11 26.13l-7.63 18.78h-45.7l-10.64 26.42h-24.41l18.28-45.2zM616 182h110.33l-7.51 18.65h-94zm230.13 0l-7.51 18.65h-94.14L735.72 182zm-115.29 52.43h94l-7.63 18.9h-94zm10.64-26.3h70.23l-7.64 18.78h-70.23zM856.9 227h60.47l-3 7.51H837l-7.64 18.78h88.51a14.27 14.27 0 005-1.06 32.23 32.23 0 005.38-2.7 26.9 26.9 0 004.63-3.57 11.89 11.89 0 002.75-3.69l7.77-19.4a14.93 14.93 0 001.31-6.89 7.52 7.52 0 00-2-4.5 9.48 9.48 0 00-4.45-2.5 22.78 22.78 0 00-6-.76h-60.34l3.13-7.51h77.37l7.51-18.71h-88.51a13.8 13.8 0 00-4.88 1.07 29.4 29.4 0 00-5.38 2.75 32.8 32.8 0 00-4.7 3.63 11.8 11.8 0 00-2.81 3.69L846 212.27a14.32 14.32 0 00-1.44 6.95 7.61 7.61 0 002 4.57 9.47 9.47 0 004.39 2.5 22 22 0 005.94.75zm114.55 0h60.47l-3 7.51h-77.38l-7.63 18.78h88.51a14.18 14.18 0 005-1.06 31.85 31.85 0 005.38-2.7 26.6 26.6 0 004.64-3.57 11.89 11.89 0 002.75-3.69l7.76-19.4a15 15 0 001.32-6.89 7.47 7.47 0 00-2-4.5 9.39 9.39 0 00-4.44-2.5 22.84 22.84 0 00-6-.76h-60.36l3.13-7.51h77.4l7.51-18.78H986a13.8 13.8 0 00-4.88 1.07 29.4 29.4 0 00-5.38 2.75 32.8 32.8 0 00-4.7 3.63 11.7 11.7 0 00-2.82 3.69l-7.63 19.16a14.32 14.32 0 00-1.44 6.95 7.56 7.56 0 002 4.57 9.49 9.49 0 004.38 2.5 22.17 22.17 0 006 .75zm113.3-45.03h40.68l-28.79 71.36h-24.41l21.28-52.71-8.76-18.65zm140.58.03a24.4 24.4 0 017.89 1.06 9.3 9.3 0 014.44 2.95 7 7 0 011.38 4.57 16.91 16.91 0 01-1.31 5.82L1221 237.81a23.05 23.05 0 01-9.89 11.33 31.38 31.38 0 01-16.4 4.19h-66q-9.39 0-13-4.19t-.75-11.33l10.89-27h24.54l-9.64 23.91h57l13.77-34.05h-81.5l1.75-4.26A22.25 22.25 0 011140 186q5.82-4 15.59-4h69.72zm23.29-.03h34.93l38.68 38.81 15.65-38.81h24.66l-28.79 71.36h-18.41l-39.31-38.43-15.52 38.43h-24.41l21.28-52.71-8.76-18.65zm151.48 0h40.06l19.15 71.36h-27.54l-5.39-18.78h-34.8l-20.9 18.78h-27.42l40.31-37.43h38.18l-2.37-9.52h-25.17l11.9-11.39-6.01-13.02zm152.35 71.36h-85.5l21.28-52.71-8.76-18.65h40.68l-21.28 52.7h61.09l-7.51 18.66z" fill="#fff"/></g></svg>