<?xml version="1.0" encoding="UTF-8"?>
<!DOCTYPE svg PUBLIC "-//W3C//DTD SVG 1.1//EN" "http://www.w3.org/Graphics/SVG/1.1/DTD/svg11.dtd">
<!-- Creator: CorelDRAW 2018 (64-Bit Evaluation Version) -->
<svg xmlns="http://www.w3.org/2000/svg" xml:space="preserve" width="21.5032in" height="4.6863in" version="1.1" style="shape-rendering:geometricPrecision; text-rendering:geometricPrecision; image-rendering:optimizeQuality; fill-rule:evenodd; clip-rule:evenodd"
viewBox="0 0 12912.92 2814.18"
 xmlns:xlink="http://www.w3.org/1999/xlink">
 <defs>
  <style type="text/css">
   <![CDATA[
    .fil3 {fill:none}
    .fil0 {fill:black}
    .fil1 {fill:white}
    .fil4 {fill:white;fill-rule:nonzero}
    .fil5 {fill:url(#id2)}
    .fil2 {fill:url(#id3)}
   ]]>
  </style>
    <clipPath id="id0">
     <path d="M8823.44 938.39c-46.91,6.22 -93.96,25.65 -133.28,55.25 -11.39,8.5 -31.27,27.32 -50.24,47.82 -7.14,7.44 -10.32,10.02 -12.15,9.26 -6.98,-3.19 -17.31,1.06 -34.31,13.66 -18.67,13.97 -62.69,55.56 -97.15,91.84 -18.37,19.28 -34.16,35.07 -35.07,35.07 -2.58,0 -4.4,25.96 -2.13,30.21 1.52,3.04 0.61,4.25 -9.41,13.81 -9.41,8.96 -11.69,10.47 -14.88,9.56 -2.12,-0.46 -6.22,-1.06 -9.11,-1.06 -4.1,-0.15 -5.31,0.46 -6.07,3.04 -0.46,1.82 -15.18,18.21 -32.64,36.43 -39.62,41.14 -48.12,50.25 -58.9,63.15 -11.99,14.42 -12.45,15.49 -8.8,21.55 1.67,2.73 4.55,6.22 6.22,7.74 3.04,2.73 3.04,2.73 -5.01,11.23 -15.63,16.55 -32.64,41.14 -43.87,63.15 -26.97,70.63 -31.87,91.31 -25.5,181.4 12.45,64.82 45.39,120.98 96.09,163.64 74.53,62.69 177.76,81.66 272.02,50.24 27.78,-9.26 68.16,-31.57 87.28,-48.12l6.83 -5.92 -69.83 -1.06c-38.4,-0.61 -84.55,-0.91 -102.46,-0.76 -35.37,0.45 -48.12,-0.91 -70.59,-7.14 -46.15,-13.06 -83.49,-38.71 -112.63,-77.27 -16.85,-22.47 -27.63,-45.54 -35.67,-75.9 -4.7,-17.61 -4.86,-19.28 -4.86,-50.09 0,-30.06 0.15,-32.94 4.25,-49.18 9.26,-37.04 23.23,-63.6 49.64,-94.27 6.83,-7.89 9.56,-10.17 11.84,-9.56 6.83,1.82 28.38,-15.18 63.76,-50.1 30.21,-29.9 53.28,-57.38 53.28,-63.45 0,-0.91 -1.37,-3.49 -3.04,-5.62l-3.19 -3.95 7.13 -7.14 28.84 17c15.79,9.41 30.82,18.22 33.39,19.58 19.18,11.28 38.27,22.76 57.38,34.15 20.49,12.15 29.6,18.22 28.08,18.98 -1.21,0.61 -5.16,1.67 -8.96,2.28 -3.79,0.46 -17,2.58 -29.6,4.55 -29.75,4.86 -74.53,11.08 -88.19,12.3l-10.78 1.06 -3.49 -10.47c-3.49,-10.32 -9.87,-18.82 -14.12,-18.82 -2.88,0 -6.22,3.95 -4.86,5.92 0.45,0.91 0.91,17.91 0.91,37.65 0,19.89 0.45,37.34 0.76,38.71 1.67,5.92 27.78,2.13 34.3,-4.7 3.49,-3.95 19.13,-7.29 22.47,-4.86 4.71,3.49 6.68,3.64 19.58,1.06 7.14,-1.37 16.24,-2.43 20.04,-2.43 3.79,0 9.11,-0.76 11.84,-1.67 4.4,-1.52 5.31,-1.37 8.8,1.82 4.56,4.4 9.56,13.66 9.56,18.06 0,4.4 4.1,13.81 7.89,17.76 3.19,3.34 3.19,3.49 0.3,3.49 -9.26,0 -52.83,27.78 -65.88,41.9 -7.44,8.05 -9.87,13.51 -11.39,24.9 -1.21,10.93 -4.7,30.36 -8.65,49.33 -5.01,24.14 -5.01,22.77 -0.46,26.41 6.07,4.7 4.7,11.54 -5.77,27.78 -8.96,13.81 -10.32,14.72 -24.59,17.15 -7.74,1.37 -16.7,5.92 -19.58,10.17 -3.64,5.01 -3.04,11.38 1.06,13.66 4.56,2.43 28.08,1.82 42.96,-1.22 6.68,-1.37 13.66,-2.43 15.79,-2.13 15.18,1.22 25.96,0.61 27.48,-1.52 1.97,-3.19 0.15,-20.19 -3.34,-30.36 -3.64,-10.47 -3.64,-15.33 0.15,-20.19 1.82,-2.28 3.64,-8.05 4.55,-14.42 1.52,-10.62 5.62,-20.64 16.7,-40.38 4.25,-7.59 5.16,-11.08 5.92,-22.01l0.91 -13.06 5.92 -1.97c3.34,-1.06 12.15,-3.04 19.73,-4.25 7.59,-1.37 15.79,-3.34 18.22,-4.56 6.53,-3.19 7.44,-2.73 12.75,4.71 7.89,11.23 12.29,13.06 29.14,12.6 12.14,-0.46 15.18,-1.06 19.43,-3.95 3.04,-2.27 4.86,-4.86 4.86,-6.98 0,-3.79 3.49,-7.59 8.65,-9.11 1.82,-0.61 3.49,-2.58 3.79,-4.4 0.76,-5.16 10.17,-4.25 25.5,2.73 16.54,7.44 27.78,8.5 45.39,3.95 7.14,-1.67 14.88,-4.86 17.61,-6.98 5.47,-4.1 6.83,-3.19 6.83,5.16 0,7.59 17.3,19.89 24.74,17.46 4.25,-1.37 2.58,-8.96 -4.1,-19.13 -6.22,-9.41 -8.5,-15.79 -6.98,-20.04 0.91,-2.58 1.22,-2.43 4.4,1.52 1.97,2.43 4.4,6.53 5.47,9.26 3.49,8.05 7.89,9.87 23.07,9.41 11.39,-0.45 14.12,-1.21 18.37,-4.4 10.32,-7.74 14.27,-21.56 10.17,-35.67 -3.64,-12.6 -6.07,-15.33 -19.73,-22.01 -6.68,-3.19 -14.27,-7.74 -17,-9.87 -4.71,-3.95 -4.71,-3.95 -5.77,-0.91 -1.22,3.95 -10.02,4.4 -12.9,0.91 -3.34,-3.95 -8.2,-2.28 -8.81,3.04 -0.91,7.89 -6.37,10.93 -6.37,3.49 0,-1.67 -2.73,-9.87 -6.07,-18.06 -6.98,-17.31 -7.44,-23.38 -2.43,-34 6.22,-13.51 19.28,-33.09 27.63,-41.75 4.4,-4.55 8.65,-10.02 9.41,-12.14 1.21,-2.88 8.35,-7.59 29.3,-18.82 15.33,-8.35 35.07,-18.98 43.87,-23.68 8.8,-4.86 22.16,-11.99 29.6,-15.94 7.59,-3.95 29.75,-15.94 49.33,-26.56 49.94,-27.02 64.97,-34.91 65.88,-34.91 1.97,0 0.61,9.26 -3.49,24.29 -12.14,44.33 -26.72,67.25 -75.14,118.4 -5.16,5.47 -20.34,21.86 -33.85,36.43 -13.36,14.57 -27.78,30.36 -32.03,34.91 -4.4,4.55 -7.89,8.8 -7.89,9.41 0,0.76 2.28,4.4 5.16,8.35 2.73,4.1 6.53,10.17 8.35,13.66 3.95,7.89 10.78,33.85 10.78,41.29 0,6.22 2.43,10.93 4.25,8.35 0.61,-0.91 8.65,-9.87 17.76,-19.73 9.26,-9.87 26.26,-28.23 37.95,-40.83 11.54,-12.45 24.9,-26.87 29.6,-31.88 4.55,-5.01 16.09,-17.61 25.65,-27.78 135.44,-145.45 112.31,-371.75 -74.99,-459.49 -23.53,-11.08 -54.8,-20.65 -78.93,-24.29 -14.12,-1.97 -64.06,-2.13 -79.69,-0.15l-0 0zm74.53 70.74c22.47,4.1 37.8,9.11 57.99,19.13 40.68,20.04 73.47,52.22 93.2,91.08 4.1,8.35 8.96,18.82 10.78,23.38 3.95,10.17 10.32,34.61 11.69,44.17l0.91 6.98 -8.04 5.31c-61.33,41.97 -122.34,84.4 -184.13,125.69 -10.78,7.28 -22.46,14.12 -25.81,15.18 -3.34,1.06 -9.41,3.04 -13.66,4.55 -11.54,4.1 -19.58,6.07 -24.44,6.07 -2.43,0 -6.83,1.37 -9.72,3.04 -13.36,7.29 -18.06,8.8 -33.39,10.47 -8.8,0.91 -29.6,4.71 -46.3,8.5 -16.7,3.79 -34.16,7.59 -38.71,8.5 -4.55,0.91 -9.56,2.28 -11.08,3.19 -3.95,2.13 -6.83,-0.91 -8.96,-8.96 -1.06,-4.4 -3.64,-8.8 -7.29,-12.45 -3.19,-3.04 -6.07,-6.83 -6.38,-8.5 -0.91,-5.01 -4.86,-3.49 -8.04,3.34 -1.67,3.49 -3.49,6.22 -4.1,6.07 -0.61,-0.15 -16.24,-15.03 -34.76,-32.94 -18.14,-17.54 -36.26,-35.09 -54.5,-52.52l6.53 -4.71c9.87,-7.14 40.38,-36.74 52.22,-50.85 18.52,-21.71 20.19,-26.87 13.36,-38.56l-3.79 -6.38 10.32 -9.71c41.59,-39.77 39.62,-37.65 38.71,-42.35 -0.61,-3.49 0,-5.01 3.95,-8.35 3.95,-3.34 4.86,-5.01 4.4,-9.11 -0.45,-4.55 1.22,-6.98 17.46,-24.74 42.05,-46.3 79.24,-66.49 140.72,-76.51 11.84,-1.97 44.63,-0.91 60.87,1.97l0 0zm175.33 215.55c-0.61,7.14 -1.82,13.66 -2.88,14.57 -0.91,0.91 -9.26,5.62 -18.52,10.48 -9.11,4.86 -23.83,12.75 -32.64,17.46 -8.8,4.71 -21.1,11.39 -27.32,14.72 -6.22,3.34 -20.64,11.08 -31.88,17.15 -108.39,58.75 -102.62,55.71 -99.73,51.46 1.37,-1.97 2.58,-5.01 2.58,-6.68 0.15,-2.28 11.84,-10.93 48.27,-35.22 26.41,-17.76 62.54,-41.9 80,-53.74 26.77,-18.23 53.61,-36.37 80.45,-54.49l1.22 5.62c0.76,3.19 0.91,11.54 0.45,18.67l0 -0zm-588.37 4.55c-1.06,2.13 -1.06,3.04 0,3.04 0.76,0 1.52,-0.91 1.67,-1.97 0,-1.21 0.3,-1.21 0.76,-0.15 0.46,1.06 2.13,1.52 3.64,1.06 1.82,-0.45 3.04,0 3.04,1.22 0,1.06 0.46,1.52 0.91,0.91 0.46,-0.45 2.13,0.3 3.65,1.52 2.43,2.13 2.43,3.04 0.76,10.63 -1.06,4.55 -2.88,9.26 -3.95,10.17 -1.21,1.06 -6.07,5.47 -10.78,9.87l-8.65 8.05 -5.77 -3.49c-3.19,-1.97 -7.14,-5.01 -8.96,-6.83 -2.73,-2.88 -2.88,-3.34 -0.76,-4.86 2.13,-1.52 2.13,-1.67 -0.15,-0.91 -5.47,1.82 -2.43,-2.58 11.38,-16.7 7.59,-7.89 14.12,-14.42 14.42,-14.42 0.15,-0.15 -0.3,1.22 -1.22,2.88l0 0zm-15.18 49.03c1.97,0.76 1.82,0.91 -0.15,0.91 -1.37,0.15 -3.34,-0.91 -4.4,-2.12 -1.06,-1.22 -2.58,-1.82 -3.49,-1.22 -0.91,0.61 -1.06,0.15 -0.46,-0.91 0.91,-1.37 1.82,-1.37 3.64,0.3 1.52,1.22 3.64,2.58 4.86,3.04l0 0zm52.52 4.25c4.1,3.79 14.88,4.25 21.25,0.91l4.4 -2.28 30.97 29.91c21.17,20.23 42.15,40.62 63.15,61.02 -20.75,-12.29 -41.48,-24.62 -62.24,-36.89 -13.36,-7.89 -32.79,-19.28 -43.26,-25.5 -10.47,-6.07 -21.86,-12.75 -25.35,-15.03l-6.38 -3.95 5.47 -5.62c6.53,-6.68 7.44,-6.83 11.99,-2.58l0 0zm296.61 74.23c0,0.76 -2.58,2.13 -5.62,2.88 -7.29,2.13 -8.5,2.13 -7.29,0 2.13,-3.34 12.9,-5.92 12.9,-2.88zm4.1 8.65c3.04,9.11 -20.55,7.43 -24.74,9.11 -5.16,1.97 -0.46,-2.58 7.44,-7.14 8.05,-4.7 16.24,-5.62 17.31,-1.97l0 0zm-34.16 7.29c-2.88,2.12 -27.32,6.07 -28.84,4.7 -0.76,-0.76 23.83,-6.68 28.54,-6.83l3.65 -0.15 -3.34 2.28zm28.54 6.37c0,0.76 -5.16,6.98 -11.54,14.12 -6.22,7.13 -13.36,15.94 -15.94,19.73 -3.95,6.07 -5.16,6.68 -9.41,6.22 -2.73,-0.15 -5.31,-1.22 -5.92,-2.13 -0.76,-1.22 -3.79,-1.06 -10.63,0.3 -5.31,1.22 -12.75,2.43 -16.7,2.73 -4.1,0.46 -7.28,1.37 -7.28,2.28 0,1.7 26.57,28.73 30.82,33.09l-5.92 -0.15c-16.09,-0.15 -20.34,-1.97 -29.3,-11.99 -4.71,-5.16 -10.93,-10.63 -13.81,-11.99 -6.07,-2.73 -7.59,-8.5 -2.28,-8.5 1.67,0 3.19,0.91 3.19,1.82 0.15,1.06 0.3,2.58 0.46,3.49 0,0.76 3.04,1.52 6.68,1.52l6.38 0 -3.79 -3.04c-4.4,-3.34 -3.04,-5.77 5.01,-8.5 3.79,-1.36 4.86,-2.58 4.86,-5.77 0.15,-4.4 0.61,-4.86 25.96,-21.1 15.33,-9.87 15.33,-9.87 30.36,-11.39 8.2,-0.76 15.94,-1.52 17,-1.67 0.91,0 1.82,0.3 1.82,0.91l0 0zm-85.46 1.52c-3.04,0.3 -7.89,0.3 -10.62,0 -2.58,-0.3 0,-0.61 5.77,-0.61 5.92,0 8.05,0.3 4.86,0.61l0 0zm-18.06 1.52c-1.52,0.3 -3.95,0.3 -5.31,0 -3.43,-1.03 8.44,-1.04 5.31,0zm55.41 3.19c-6.53,4.86 -18.67,11.08 -18.67,9.41 0,-0.91 1.06,-3.64 2.28,-6.07 1.82,-3.64 3.49,-4.55 8.65,-5.01 3.64,-0.3 7.59,-0.61 8.8,-0.76 1.52,-0.15 1.06,0.76 -1.06,2.43l0 0zm-21.71 1.37c0,0.76 -2.28,5.31 -5.01,10.17l-5.01 9.11 -14.27 4.4c-15.63,4.86 -14.42,5.16 -20.04,-4.86 -1.67,-3.19 -4.1,-4.86 -7.74,-5.46 -5.92,-1.22 -15.48,-6.53 -14.12,-7.89 1.06,-1.06 47.67,-6.07 59.05,-6.38 3.95,0 7.14,0.3 7.14,0.91l0 0zm-85.01 8.8c1.06,1.21 3.49,2.28 5.62,2.28 3.04,0 3.34,0.45 1.97,2.88 -0.76,1.67 -1.06,4.1 -0.45,5.46 0.76,2.13 0.3,2.43 -2.73,1.52 -8.65,-2.73 -19.13,-5.31 -22.16,-5.31 -1.82,0 -5.16,-1.67 -7.29,-3.64l-3.95 -3.79 5.01 -0.61c12.45,-1.52 22.16,-1.06 23.99,1.22l-0 0zm-71.95 6.53c-2.28,3.64 -17.76,9.56 -27.63,10.32 -13.21,1.06 -20.49,3.34 -23.07,6.98 -2.73,3.79 -14.12,3.79 -17.46,0 -2.43,-2.58 -2.43,-3.04 0.91,-6.07 4.55,-4.4 40.38,-11.69 59.2,-12.3 4.86,0 8.5,0.45 8.05,1.06zm81.06 13.36c0,2.28 -7.59,12.75 -9.26,12.75 -1.09,0 -9.07,-11.54 -10.47,-13.51 3.54,-0.52 19.73,-3.45 19.73,0.76zm8.35 6.68c0.61,1.97 -0.91,5.31 -4.86,10.62l-5.77 7.59 -2.58 -3.34c-2.73,-3.79 -2.88,-3.49 6.22,-13.81 4.4,-4.86 5.77,-5.16 6.98,-1.06zm92.6 0c1.38,2.07 -10.81,1.12 -12.14,1.06 1.54,-0.31 10.57,-2.07 10.93,-2.43 0.15,0 0.76,0.45 1.22,1.37zm-83.49 6.07c0.91,1.52 -11.08,19.73 -13.06,19.73 -0.45,0 -1.82,-1.06 -2.88,-2.28 -1.52,-1.82 -0.45,-3.64 5.47,-10.63 7.44,-8.5 8.8,-9.41 10.47,-6.83zm92.75 10.32c0.45,12.29 -0.91,13.51 -8.2,7.74 -7.14,-5.31 -18.52,-16.85 -17.91,-17.91 0.3,-0.45 6.22,-0.91 13.21,-0.91l12.6 0.15 0.3 10.93 0 0zm-89.11 17.31c0.15,0.76 -0.45,1.21 -1.36,1.21 -0.76,0 -1.52,-1.82 -1.37,-4.25 0,-3.64 0.15,-3.79 1.37,-1.06 0.76,1.67 1.36,3.49 1.36,4.1zm136.47 74.53c1.06,2.73 4.25,7.89 7.14,11.23 6.07,7.14 6.68,9.56 2.28,9.56 -4.25,0 -13.36,-8.5 -14.42,-13.51 -0.91,-4.55 0.3,-12.3 2.13,-12.3 0.61,0 1.82,2.28 2.88,5.01l0 0zm-120.83 12.45c-0.3,2.43 -1.06,5.16 -1.82,5.92 -2.43,2.43 -6.07,-0.46 -6.07,-4.86 0,-5.31 1.22,-6.68 5.31,-6.07 2.43,0.3 2.88,1.37 2.58,5.01zm-9.26 9.26c5.07,6.2 -16.85,7.59 -16.85,2.27 0,-2.88 1.37,-3.34 12.29,-4.4 1.37,-0.15 3.34,0.76 4.56,2.13l0 0z"/>
    </clipPath>
    <clipPath id="id1">
     <path d="M2217.81 905.02c-46.91,6.22 -93.96,25.65 -133.28,55.25 -11.39,8.5 -31.27,27.32 -50.24,47.82 -7.14,7.44 -10.32,10.02 -12.15,9.26 -6.98,-3.19 -17.31,1.06 -34.31,13.66 -18.67,13.97 -62.69,55.56 -97.15,91.84 -18.37,19.28 -34.16,35.07 -35.07,35.07 -2.58,0 -4.4,25.96 -2.13,30.21 1.52,3.04 0.61,4.25 -9.41,13.81 -9.41,8.96 -11.69,10.47 -14.88,9.56 -2.12,-0.46 -6.22,-1.06 -9.11,-1.06 -4.1,-0.15 -5.31,0.46 -6.07,3.04 -0.46,1.82 -15.18,18.21 -32.64,36.43 -39.62,41.14 -48.12,50.25 -58.9,63.15 -11.99,14.42 -12.45,15.49 -8.8,21.55 1.67,2.73 4.55,6.22 6.22,7.74 3.04,2.73 3.04,2.73 -5.01,11.23 -15.63,16.55 -32.64,41.14 -43.87,63.15 -26.97,70.63 -31.87,91.31 -25.5,181.4 12.45,64.82 45.39,120.98 96.09,163.64 74.53,62.69 177.76,81.66 272.02,50.24 27.78,-9.26 68.16,-31.57 87.28,-48.12l6.83 -5.92 -69.83 -1.06c-38.4,-0.61 -84.55,-0.91 -102.46,-0.76 -35.37,0.45 -48.12,-0.91 -70.59,-7.14 -46.15,-13.06 -83.49,-38.71 -112.63,-77.27 -16.85,-22.47 -27.63,-45.54 -35.67,-75.9 -4.7,-17.61 -4.86,-19.28 -4.86,-50.09 0,-30.06 0.15,-32.94 4.25,-49.18 9.26,-37.04 23.23,-63.6 49.64,-94.27 6.83,-7.89 9.56,-10.17 11.84,-9.56 6.83,1.82 28.38,-15.18 63.76,-50.1 30.21,-29.9 53.28,-57.38 53.28,-63.45 0,-0.91 -1.37,-3.49 -3.04,-5.62l-3.19 -3.95 7.13 -7.14 28.84 17c15.79,9.41 30.82,18.22 33.39,19.58 19.18,11.28 38.27,22.76 57.38,34.15 20.49,12.15 29.6,18.22 28.08,18.98 -1.21,0.61 -5.16,1.67 -8.96,2.28 -3.79,0.46 -17,2.58 -29.6,4.55 -29.75,4.86 -74.53,11.08 -88.19,12.3l-10.78 1.06 -3.49 -10.47c-3.49,-10.32 -9.87,-18.82 -14.12,-18.82 -2.88,0 -6.22,3.95 -4.86,5.92 0.45,0.91 0.91,17.91 0.91,37.65 0,19.89 0.45,37.34 0.76,38.71 1.67,5.92 27.78,2.13 34.3,-4.7 3.49,-3.95 19.13,-7.29 22.47,-4.86 4.71,3.49 6.68,3.64 19.58,1.06 7.14,-1.37 16.24,-2.43 20.04,-2.43 3.79,0 9.11,-0.76 11.84,-1.67 4.4,-1.52 5.31,-1.37 8.8,1.82 4.56,4.4 9.56,13.66 9.56,18.06 0,4.4 4.1,13.81 7.89,17.76 3.19,3.34 3.19,3.49 0.3,3.49 -9.26,0 -52.83,27.78 -65.88,41.9 -7.44,8.05 -9.87,13.51 -11.39,24.9 -1.21,10.93 -4.7,30.36 -8.65,49.33 -5.01,24.14 -5.01,22.77 -0.46,26.41 6.07,4.7 4.7,11.54 -5.77,27.78 -8.96,13.81 -10.32,14.72 -24.59,17.15 -7.74,1.37 -16.7,5.92 -19.58,10.17 -3.64,5.01 -3.04,11.38 1.06,13.66 4.56,2.43 28.08,1.82 42.96,-1.22 6.68,-1.37 13.66,-2.43 15.79,-2.13 15.18,1.22 25.96,0.61 27.48,-1.52 1.97,-3.19 0.15,-20.19 -3.34,-30.36 -3.64,-10.47 -3.64,-15.33 0.15,-20.19 1.82,-2.28 3.64,-8.05 4.55,-14.42 1.52,-10.62 5.62,-20.64 16.7,-40.38 4.25,-7.59 5.16,-11.08 5.92,-22.01l0.91 -13.06 5.92 -1.97c3.34,-1.06 12.15,-3.04 19.73,-4.25 7.59,-1.37 15.79,-3.34 18.22,-4.56 6.53,-3.19 7.44,-2.73 12.75,4.71 7.89,11.23 12.29,13.06 29.14,12.6 12.14,-0.46 15.18,-1.06 19.43,-3.95 3.04,-2.27 4.86,-4.86 4.86,-6.98 0,-3.79 3.49,-7.59 8.65,-9.11 1.82,-0.61 3.49,-2.58 3.79,-4.4 0.76,-5.16 10.17,-4.25 25.5,2.73 16.54,7.44 27.78,8.5 45.39,3.95 7.14,-1.67 14.88,-4.86 17.61,-6.98 5.47,-4.1 6.83,-3.19 6.83,5.16 0,7.59 17.3,19.89 24.74,17.46 4.25,-1.37 2.58,-8.96 -4.1,-19.13 -6.22,-9.41 -8.5,-15.79 -6.98,-20.04 0.91,-2.58 1.22,-2.43 4.4,1.52 1.97,2.43 4.4,6.53 5.47,9.26 3.49,8.05 7.89,9.87 23.07,9.41 11.39,-0.45 14.12,-1.21 18.37,-4.4 10.32,-7.74 14.27,-21.56 10.17,-35.67 -3.64,-12.6 -6.07,-15.33 -19.73,-22.01 -6.68,-3.19 -14.27,-7.74 -17,-9.87 -4.71,-3.95 -4.71,-3.95 -5.77,-0.91 -1.22,3.95 -10.02,4.4 -12.9,0.91 -3.34,-3.95 -8.2,-2.28 -8.81,3.04 -0.91,7.89 -6.37,10.93 -6.37,3.49 0,-1.67 -2.73,-9.87 -6.07,-18.06 -6.98,-17.31 -7.44,-23.38 -2.43,-34 6.22,-13.51 19.28,-33.09 27.63,-41.75 4.4,-4.55 8.65,-10.02 9.41,-12.14 1.21,-2.88 8.35,-7.59 29.3,-18.82 15.33,-8.35 35.07,-18.98 43.87,-23.68 8.8,-4.86 22.16,-11.99 29.6,-15.94 7.59,-3.95 29.75,-15.94 49.33,-26.56 49.94,-27.02 64.97,-34.91 65.88,-34.91 1.97,0 0.61,9.26 -3.49,24.29 -12.14,44.33 -26.72,67.25 -75.14,118.4 -5.16,5.47 -20.34,21.86 -33.85,36.43 -13.36,14.57 -27.78,30.36 -32.03,34.91 -4.4,4.55 -7.89,8.8 -7.89,9.41 0,0.76 2.28,4.4 5.16,8.35 2.73,4.1 6.53,10.17 8.35,13.66 3.95,7.89 10.78,33.85 10.78,41.29 0,6.22 2.43,10.93 4.25,8.35 0.61,-0.91 8.65,-9.87 17.76,-19.73 9.26,-9.87 26.26,-28.23 37.95,-40.83 11.54,-12.45 24.9,-26.87 29.6,-31.88 4.55,-5.01 16.09,-17.61 25.65,-27.78 135.44,-145.45 112.31,-371.75 -74.99,-459.49 -23.53,-11.08 -54.8,-20.65 -78.93,-24.29 -14.12,-1.97 -64.06,-2.13 -79.69,-0.15l-0 0zm74.53 70.74c22.47,4.1 37.8,9.11 57.99,19.13 40.68,20.04 73.47,52.22 93.2,91.08 4.1,8.35 8.96,18.82 10.78,23.38 3.95,10.17 10.32,34.61 11.69,44.17l0.91 6.98 -8.04 5.31c-61.33,41.97 -122.34,84.4 -184.13,125.69 -10.78,7.28 -22.46,14.12 -25.81,15.18 -3.34,1.06 -9.41,3.04 -13.66,4.55 -11.54,4.1 -19.58,6.07 -24.44,6.07 -2.43,0 -6.83,1.37 -9.72,3.04 -13.36,7.29 -18.06,8.8 -33.39,10.47 -8.8,0.91 -29.6,4.71 -46.3,8.5 -16.7,3.79 -34.16,7.59 -38.71,8.5 -4.55,0.91 -9.56,2.28 -11.08,3.19 -3.95,2.13 -6.83,-0.91 -8.96,-8.96 -1.06,-4.4 -3.64,-8.8 -7.29,-12.45 -3.19,-3.04 -6.07,-6.83 -6.38,-8.5 -0.91,-5.01 -4.86,-3.49 -8.04,3.34 -1.67,3.49 -3.49,6.22 -4.1,6.07 -0.61,-0.15 -16.24,-15.03 -34.76,-32.94 -18.14,-17.54 -36.26,-35.09 -54.5,-52.52l6.53 -4.71c9.87,-7.14 40.38,-36.74 52.22,-50.85 18.52,-21.71 20.19,-26.87 13.36,-38.56l-3.79 -6.38 10.32 -9.71c41.59,-39.77 39.62,-37.65 38.71,-42.35 -0.61,-3.49 0,-5.01 3.95,-8.35 3.95,-3.34 4.86,-5.01 4.4,-9.11 -0.45,-4.55 1.22,-6.98 17.46,-24.74 42.05,-46.3 79.24,-66.49 140.72,-76.51 11.84,-1.97 44.63,-0.91 60.87,1.97l0 0zm175.33 215.55c-0.61,7.14 -1.82,13.66 -2.88,14.57 -0.91,0.91 -9.26,5.62 -18.52,10.48 -9.11,4.86 -23.83,12.75 -32.64,17.46 -8.8,4.71 -21.1,11.39 -27.32,14.72 -6.22,3.34 -20.64,11.08 -31.88,17.15 -108.39,58.75 -102.62,55.71 -99.73,51.46 1.37,-1.97 2.58,-5.01 2.58,-6.68 0.15,-2.28 11.84,-10.93 48.27,-35.22 26.41,-17.76 62.54,-41.9 80,-53.74 26.77,-18.23 53.61,-36.37 80.45,-54.49l1.22 5.62c0.76,3.19 0.91,11.54 0.45,18.67l0 -0zm-588.37 4.55c-1.06,2.13 -1.06,3.04 0,3.04 0.76,0 1.52,-0.91 1.67,-1.97 0,-1.21 0.3,-1.21 0.76,-0.15 0.46,1.06 2.13,1.52 3.64,1.06 1.82,-0.45 3.04,0 3.04,1.22 0,1.06 0.46,1.52 0.91,0.91 0.46,-0.45 2.13,0.3 3.65,1.52 2.43,2.13 2.43,3.04 0.76,10.63 -1.06,4.55 -2.88,9.26 -3.95,10.17 -1.21,1.06 -6.07,5.47 -10.78,9.87l-8.65 8.05 -5.77 -3.49c-3.19,-1.97 -7.14,-5.01 -8.96,-6.83 -2.73,-2.88 -2.88,-3.34 -0.76,-4.86 2.13,-1.52 2.13,-1.67 -0.15,-0.91 -5.47,1.82 -2.43,-2.58 11.38,-16.7 7.59,-7.89 14.12,-14.42 14.42,-14.42 0.15,-0.15 -0.3,1.22 -1.22,2.88l0 0zm-15.18 49.03c1.97,0.76 1.82,0.91 -0.15,0.91 -1.37,0.15 -3.34,-0.91 -4.4,-2.12 -1.06,-1.22 -2.58,-1.82 -3.49,-1.22 -0.91,0.61 -1.06,0.15 -0.46,-0.91 0.91,-1.37 1.82,-1.37 3.64,0.3 1.52,1.22 3.64,2.58 4.86,3.04l0 0zm52.52 4.25c4.1,3.79 14.88,4.25 21.25,0.91l4.4 -2.28 30.97 29.91c21.17,20.23 42.15,40.62 63.15,61.02 -20.75,-12.29 -41.48,-24.62 -62.24,-36.89 -13.36,-7.89 -32.79,-19.28 -43.26,-25.5 -10.47,-6.07 -21.86,-12.75 -25.35,-15.03l-6.38 -3.95 5.47 -5.62c6.53,-6.68 7.44,-6.83 11.99,-2.58l0 0zm296.61 74.23c0,0.76 -2.58,2.13 -5.62,2.88 -7.29,2.13 -8.5,2.13 -7.29,0 2.13,-3.34 12.9,-5.92 12.9,-2.88zm4.1 8.65c3.04,9.11 -20.55,7.43 -24.74,9.11 -5.16,1.97 -0.46,-2.58 7.44,-7.14 8.05,-4.7 16.24,-5.62 17.31,-1.97l0 0zm-34.16 7.29c-2.88,2.12 -27.32,6.07 -28.84,4.7 -0.76,-0.76 23.83,-6.68 28.54,-6.83l3.65 -0.15 -3.34 2.28zm28.54 6.37c0,0.76 -5.16,6.98 -11.54,14.12 -6.22,7.13 -13.36,15.94 -15.94,19.73 -3.95,6.07 -5.16,6.68 -9.41,6.22 -2.73,-0.15 -5.31,-1.22 -5.92,-2.13 -0.76,-1.22 -3.79,-1.06 -10.63,0.3 -5.31,1.22 -12.75,2.43 -16.7,2.73 -4.1,0.46 -7.28,1.37 -7.28,2.28 0,1.7 26.57,28.73 30.82,33.09l-5.92 -0.15c-16.09,-0.15 -20.34,-1.97 -29.3,-11.99 -4.71,-5.16 -10.93,-10.63 -13.81,-11.99 -6.07,-2.73 -7.59,-8.5 -2.28,-8.5 1.67,0 3.19,0.91 3.19,1.82 0.15,1.06 0.3,2.58 0.46,3.49 0,0.76 3.04,1.52 6.68,1.52l6.38 0 -3.79 -3.04c-4.4,-3.34 -3.04,-5.77 5.01,-8.5 3.79,-1.36 4.86,-2.58 4.86,-5.77 0.15,-4.4 0.61,-4.86 25.96,-21.1 15.33,-9.87 15.33,-9.87 30.36,-11.39 8.2,-0.76 15.94,-1.52 17,-1.67 0.91,0 1.82,0.3 1.82,0.91l0 0zm-85.46 1.52c-3.04,0.3 -7.89,0.3 -10.62,0 -2.58,-0.3 0,-0.61 5.77,-0.61 5.92,0 8.05,0.3 4.86,0.61l0 0zm-18.06 1.52c-1.52,0.3 -3.95,0.3 -5.31,0 -3.43,-1.03 8.44,-1.04 5.31,0zm55.41 3.19c-6.53,4.86 -18.67,11.08 -18.67,9.41 0,-0.91 1.06,-3.64 2.28,-6.07 1.82,-3.64 3.49,-4.55 8.65,-5.01 3.64,-0.3 7.59,-0.61 8.8,-0.76 1.52,-0.15 1.06,0.76 -1.06,2.43l0 0zm-21.71 1.37c0,0.76 -2.28,5.31 -5.01,10.17l-5.01 9.11 -14.27 4.4c-15.63,4.86 -14.42,5.16 -20.04,-4.86 -1.67,-3.19 -4.1,-4.86 -7.74,-5.46 -5.92,-1.22 -15.48,-6.53 -14.12,-7.89 1.06,-1.06 47.67,-6.07 59.05,-6.38 3.95,0 7.14,0.3 7.14,0.91l0 0zm-85.01 8.8c1.06,1.21 3.49,2.28 5.62,2.28 3.04,0 3.34,0.45 1.97,2.88 -0.76,1.67 -1.06,4.1 -0.45,5.46 0.76,2.13 0.3,2.43 -2.73,1.52 -8.65,-2.73 -19.13,-5.31 -22.16,-5.31 -1.82,0 -5.16,-1.67 -7.29,-3.64l-3.95 -3.79 5.01 -0.61c12.45,-1.52 22.16,-1.06 23.99,1.22l-0 0zm-71.95 6.53c-2.28,3.64 -17.76,9.56 -27.63,10.32 -13.21,1.06 -20.49,3.34 -23.07,6.98 -2.73,3.79 -14.12,3.79 -17.46,0 -2.43,-2.58 -2.43,-3.04 0.91,-6.07 4.55,-4.4 40.38,-11.69 59.2,-12.3 4.86,0 8.5,0.45 8.05,1.06zm81.06 13.36c0,2.28 -7.59,12.75 -9.26,12.75 -1.09,0 -9.07,-11.54 -10.47,-13.51 3.54,-0.52 19.73,-3.45 19.73,0.76zm8.35 6.68c0.61,1.97 -0.91,5.31 -4.86,10.62l-5.77 7.59 -2.58 -3.34c-2.73,-3.79 -2.88,-3.49 6.22,-13.81 4.4,-4.86 5.77,-5.16 6.98,-1.06zm92.6 0c1.38,2.07 -10.81,1.12 -12.14,1.06 1.54,-0.31 10.57,-2.07 10.93,-2.43 0.15,0 0.76,0.45 1.22,1.37zm-83.49 6.07c0.91,1.52 -11.08,19.73 -13.06,19.73 -0.45,0 -1.82,-1.06 -2.88,-2.28 -1.52,-1.82 -0.45,-3.64 5.47,-10.63 7.44,-8.5 8.8,-9.41 10.47,-6.83zm92.75 10.32c0.45,12.29 -0.91,13.51 -8.2,7.74 -7.14,-5.31 -18.52,-16.85 -17.91,-17.91 0.3,-0.45 6.22,-0.91 13.21,-0.91l12.6 0.15 0.3 10.93 0 0zm-89.11 17.31c0.15,0.76 -0.45,1.21 -1.36,1.21 -0.76,0 -1.52,-1.82 -1.37,-4.25 0,-3.64 0.15,-3.79 1.37,-1.06 0.76,1.67 1.36,3.49 1.36,4.1zm136.47 74.53c1.06,2.73 4.25,7.89 7.14,11.23 6.07,7.14 6.68,9.56 2.28,9.56 -4.25,0 -13.36,-8.5 -14.42,-13.51 -0.91,-4.55 0.3,-12.3 2.13,-12.3 0.61,0 1.82,2.28 2.88,5.01l0 0zm-120.83 12.45c-0.3,2.43 -1.06,5.16 -1.82,5.92 -2.43,2.43 -6.07,-0.46 -6.07,-4.86 0,-5.31 1.22,-6.68 5.31,-6.07 2.43,0.3 2.88,1.37 2.58,5.01zm-9.26 9.26c5.07,6.2 -16.85,7.59 -16.85,2.27 0,-2.88 1.37,-3.34 12.29,-4.4 1.37,-0.15 3.34,0.76 4.56,2.13l0 0z"/>
    </clipPath>
  <radialGradient id="id2" gradientUnits="userSpaceOnUse" gradientTransform="matrix(1 -0 -0 1 0 0)" cx="1288.73" cy="1450.58" r="288.79" fx="1288.73" fy="1450.58">
   <stop offset="0" style="stop-opacity:1; stop-color:#ED1B23"/>
   <stop offset="1" style="stop-opacity:1; stop-color:white"/>
  </radialGradient>
  <radialGradient id="id3" gradientUnits="userSpaceOnUse" gradientTransform="matrix(1 -0 -0 1 0 0)" xlink:href="#id2" cx="7894.37" cy="1483.94" r="288.79" fx="7894.37" fy="1483.94">
  </radialGradient>
 </defs>
 <g id="Layer_x0020_1">
  <metadata id="CorelCorpID_0Corel-Layer"/>
  <g id="_3222490819440">
   <rect class="fil0" x="6605.64" y="33.36" width="6307.28" height="2780.82"/>
   <path class="fil1" d="M8823.44 938.39c-46.91,6.22 -93.96,25.65 -133.28,55.25 -11.39,8.5 -31.27,27.32 -50.24,47.82 -7.14,7.44 -10.32,10.02 -12.15,9.26 -6.98,-3.19 -17.31,1.06 -34.31,13.66 -18.67,13.97 -62.69,55.56 -97.15,91.84 -18.37,19.28 -34.16,35.07 -35.07,35.07 -2.58,0 -4.4,25.96 -2.13,30.21 1.52,3.04 0.61,4.25 -9.41,13.81 -9.41,8.96 -11.69,10.47 -14.88,9.56 -2.12,-0.46 -6.22,-1.06 -9.11,-1.06 -4.1,-0.15 -5.31,0.46 -6.07,3.04 -0.46,1.82 -15.18,18.21 -32.64,36.43 -39.62,41.14 -48.12,50.25 -58.9,63.15 -11.99,14.42 -12.45,15.49 -8.8,21.55 1.67,2.73 4.55,6.22 6.22,7.74 3.04,2.73 3.04,2.73 -5.01,11.23 -15.63,16.55 -32.64,41.14 -43.87,63.15 -26.97,70.63 -31.87,91.31 -25.5,181.4 12.45,64.82 45.39,120.98 96.09,163.64 74.53,62.69 177.76,81.66 272.02,50.24 27.78,-9.26 68.16,-31.57 87.28,-48.12l6.83 -5.92 -69.83 -1.06c-38.4,-0.61 -84.55,-0.91 -102.46,-0.76 -35.37,0.45 -48.12,-0.91 -70.59,-7.14 -46.15,-13.06 -83.49,-38.71 -112.63,-77.27 -16.85,-22.47 -27.63,-45.54 -35.67,-75.9 -4.7,-17.61 -4.86,-19.28 -4.86,-50.09 0,-30.06 0.15,-32.94 4.25,-49.18 9.26,-37.04 23.23,-63.6 49.64,-94.27 6.83,-7.89 9.56,-10.17 11.84,-9.56 6.83,1.82 28.38,-15.18 63.76,-50.1 30.21,-29.9 53.28,-57.38 53.28,-63.45 0,-0.91 -1.37,-3.49 -3.04,-5.62l-3.19 -3.95 7.13 -7.14 28.84 17c15.79,9.41 30.82,18.22 33.39,19.58 19.18,11.28 38.27,22.76 57.38,34.15 20.49,12.15 29.6,18.22 28.08,18.98 -1.21,0.61 -5.16,1.67 -8.96,2.28 -3.79,0.46 -17,2.58 -29.6,4.55 -29.75,4.86 -74.53,11.08 -88.19,12.3l-10.78 1.06 -3.49 -10.47c-3.49,-10.32 -9.87,-18.82 -14.12,-18.82 -2.88,0 -6.22,3.95 -4.86,5.92 0.45,0.91 0.91,17.91 0.91,37.65 0,19.89 0.45,37.34 0.76,38.71 1.67,5.92 27.78,2.13 34.3,-4.7 3.49,-3.95 19.13,-7.29 22.47,-4.86 4.71,3.49 6.68,3.64 19.58,1.06 7.14,-1.37 16.24,-2.43 20.04,-2.43 3.79,0 9.11,-0.76 11.84,-1.67 4.4,-1.52 5.31,-1.37 8.8,1.82 4.56,4.4 9.56,13.66 9.56,18.06 0,4.4 4.1,13.81 7.89,17.76 3.19,3.34 3.19,3.49 0.3,3.49 -9.26,0 -52.83,27.78 -65.88,41.9 -7.44,8.05 -9.87,13.51 -11.39,24.9 -1.21,10.93 -4.7,30.36 -8.65,49.33 -5.01,24.14 -5.01,22.77 -0.46,26.41 6.07,4.7 4.7,11.54 -5.77,27.78 -8.96,13.81 -10.32,14.72 -24.59,17.15 -7.74,1.37 -16.7,5.92 -19.58,10.17 -3.64,5.01 -3.04,11.38 1.06,13.66 4.56,2.43 28.08,1.82 42.96,-1.22 6.68,-1.37 13.66,-2.43 15.79,-2.13 15.18,1.22 25.96,0.61 27.48,-1.52 1.97,-3.19 0.15,-20.19 -3.34,-30.36 -3.64,-10.47 -3.64,-15.33 0.15,-20.19 1.82,-2.28 3.64,-8.05 4.55,-14.42 1.52,-10.62 5.62,-20.64 16.7,-40.38 4.25,-7.59 5.16,-11.08 5.92,-22.01l0.91 -13.06 5.92 -1.97c3.34,-1.06 12.15,-3.04 19.73,-4.25 7.59,-1.37 15.79,-3.34 18.22,-4.56 6.53,-3.19 7.44,-2.73 12.75,4.71 7.89,11.23 12.29,13.06 29.14,12.6 12.14,-0.46 15.18,-1.06 19.43,-3.95 3.04,-2.27 4.86,-4.86 4.86,-6.98 0,-3.79 3.49,-7.59 8.65,-9.11 1.82,-0.61 3.49,-2.58 3.79,-4.4 0.76,-5.16 10.17,-4.25 25.5,2.73 16.54,7.44 27.78,8.5 45.39,3.95 7.14,-1.67 14.88,-4.86 17.61,-6.98 5.47,-4.1 6.83,-3.19 6.83,5.16 0,7.59 17.3,19.89 24.74,17.46 4.25,-1.37 2.58,-8.96 -4.1,-19.13 -6.22,-9.41 -8.5,-15.79 -6.98,-20.04 0.91,-2.58 1.22,-2.43 4.4,1.52 1.97,2.43 4.4,6.53 5.47,9.26 3.49,8.05 7.89,9.87 23.07,9.41 11.39,-0.45 14.12,-1.21 18.37,-4.4 10.32,-7.74 14.27,-21.56 10.17,-35.67 -3.64,-12.6 -6.07,-15.33 -19.73,-22.01 -6.68,-3.19 -14.27,-7.74 -17,-9.87 -4.71,-3.95 -4.71,-3.95 -5.77,-0.91 -1.22,3.95 -10.02,4.4 -12.9,0.91 -3.34,-3.95 -8.2,-2.28 -8.81,3.04 -0.91,7.89 -6.37,10.93 -6.37,3.49 0,-1.67 -2.73,-9.87 -6.07,-18.06 -6.98,-17.31 -7.44,-23.38 -2.43,-34 6.22,-13.51 19.28,-33.09 27.63,-41.75 4.4,-4.55 8.65,-10.02 9.41,-12.14 1.21,-2.88 8.35,-7.59 29.3,-18.82 15.33,-8.35 35.07,-18.98 43.87,-23.68 8.8,-4.86 22.16,-11.99 29.6,-15.94 7.59,-3.95 29.75,-15.94 49.33,-26.56 49.94,-27.02 64.97,-34.91 65.88,-34.91 1.97,0 0.61,9.26 -3.49,24.29 -12.14,44.33 -26.72,67.25 -75.14,118.4 -5.16,5.47 -20.34,21.86 -33.85,36.43 -13.36,14.57 -27.78,30.36 -32.03,34.91 -4.4,4.55 -7.89,8.8 -7.89,9.41 0,0.76 2.28,4.4 5.16,8.35 2.73,4.1 6.53,10.17 8.35,13.66 3.95,7.89 10.78,33.85 10.78,41.29 0,6.22 2.43,10.93 4.25,8.35 0.61,-0.91 8.65,-9.87 17.76,-19.73 9.26,-9.87 26.26,-28.23 37.95,-40.83 11.54,-12.45 24.9,-26.87 29.6,-31.88 4.55,-5.01 16.09,-17.61 25.65,-27.78 135.44,-145.45 112.31,-371.75 -74.99,-459.49 -23.53,-11.08 -54.8,-20.65 -78.93,-24.29 -14.12,-1.97 -64.06,-2.13 -79.69,-0.15l-0 0zm74.53 70.74c22.47,4.1 37.8,9.11 57.99,19.13 40.68,20.04 73.47,52.22 93.2,91.08 4.1,8.35 8.96,18.82 10.78,23.38 3.95,10.17 10.32,34.61 11.69,44.17l0.91 6.98 -8.04 5.31c-61.33,41.97 -122.34,84.4 -184.13,125.69 -10.78,7.28 -22.46,14.12 -25.81,15.18 -3.34,1.06 -9.41,3.04 -13.66,4.55 -11.54,4.1 -19.58,6.07 -24.44,6.07 -2.43,0 -6.83,1.37 -9.72,3.04 -13.36,7.29 -18.06,8.8 -33.39,10.47 -8.8,0.91 -29.6,4.71 -46.3,8.5 -16.7,3.79 -34.16,7.59 -38.71,8.5 -4.55,0.91 -9.56,2.28 -11.08,3.19 -3.95,2.13 -6.83,-0.91 -8.96,-8.96 -1.06,-4.4 -3.64,-8.8 -7.29,-12.45 -3.19,-3.04 -6.07,-6.83 -6.38,-8.5 -0.91,-5.01 -4.86,-3.49 -8.04,3.34 -1.67,3.49 -3.49,6.22 -4.1,6.07 -0.61,-0.15 -16.24,-15.03 -34.76,-32.94 -18.14,-17.54 -36.26,-35.09 -54.5,-52.52l6.53 -4.71c9.87,-7.14 40.38,-36.74 52.22,-50.85 18.52,-21.71 20.19,-26.87 13.36,-38.56l-3.79 -6.38 10.32 -9.71c41.59,-39.77 39.62,-37.65 38.71,-42.35 -0.61,-3.49 0,-5.01 3.95,-8.35 3.95,-3.34 4.86,-5.01 4.4,-9.11 -0.45,-4.55 1.22,-6.98 17.46,-24.74 42.05,-46.3 79.24,-66.49 140.72,-76.51 11.84,-1.97 44.63,-0.91 60.87,1.97l0 0zm175.33 215.55c-0.61,7.14 -1.82,13.66 -2.88,14.57 -0.91,0.91 -9.26,5.62 -18.52,10.48 -9.11,4.86 -23.83,12.75 -32.64,17.46 -8.8,4.71 -21.1,11.39 -27.32,14.72 -6.22,3.34 -20.64,11.08 -31.88,17.15 -108.39,58.75 -102.62,55.71 -99.73,51.46 1.37,-1.97 2.58,-5.01 2.58,-6.68 0.15,-2.28 11.84,-10.93 48.27,-35.22 26.41,-17.76 62.54,-41.9 80,-53.74 26.77,-18.23 53.61,-36.37 80.45,-54.49l1.22 5.62c0.76,3.19 0.91,11.54 0.45,18.67l0 -0zm-588.37 4.55c-1.06,2.13 -1.06,3.04 0,3.04 0.76,0 1.52,-0.91 1.67,-1.97 0,-1.21 0.3,-1.21 0.76,-0.15 0.46,1.06 2.13,1.52 3.64,1.06 1.82,-0.45 3.04,0 3.04,1.22 0,1.06 0.46,1.52 0.91,0.91 0.46,-0.45 2.13,0.3 3.65,1.52 2.43,2.13 2.43,3.04 0.76,10.63 -1.06,4.55 -2.88,9.26 -3.95,10.17 -1.21,1.06 -6.07,5.47 -10.78,9.87l-8.65 8.05 -5.77 -3.49c-3.19,-1.97 -7.14,-5.01 -8.96,-6.83 -2.73,-2.88 -2.88,-3.34 -0.76,-4.86 2.13,-1.52 2.13,-1.67 -0.15,-0.91 -5.47,1.82 -2.43,-2.58 11.38,-16.7 7.59,-7.89 14.12,-14.42 14.42,-14.42 0.15,-0.15 -0.3,1.22 -1.22,2.88l0 0zm-15.18 49.03c1.97,0.76 1.82,0.91 -0.15,0.91 -1.37,0.15 -3.34,-0.91 -4.4,-2.12 -1.06,-1.22 -2.58,-1.82 -3.49,-1.22 -0.91,0.61 -1.06,0.15 -0.46,-0.91 0.91,-1.37 1.82,-1.37 3.64,0.3 1.52,1.22 3.64,2.58 4.86,3.04l0 0zm52.52 4.25c4.1,3.79 14.88,4.25 21.25,0.91l4.4 -2.28 30.97 29.91c21.17,20.23 42.15,40.62 63.15,61.02 -20.75,-12.29 -41.48,-24.62 -62.24,-36.89 -13.36,-7.89 -32.79,-19.28 -43.26,-25.5 -10.47,-6.07 -21.86,-12.75 -25.35,-15.03l-6.38 -3.95 5.47 -5.62c6.53,-6.68 7.44,-6.83 11.99,-2.58l0 0zm296.61 74.23c0,0.76 -2.58,2.13 -5.62,2.88 -7.29,2.13 -8.5,2.13 -7.29,0 2.13,-3.34 12.9,-5.92 12.9,-2.88zm4.1 8.65c3.04,9.11 -20.55,7.43 -24.74,9.11 -5.16,1.97 -0.46,-2.58 7.44,-7.14 8.05,-4.7 16.24,-5.62 17.31,-1.97l0 0zm-34.16 7.29c-2.88,2.12 -27.32,6.07 -28.84,4.7 -0.76,-0.76 23.83,-6.68 28.54,-6.83l3.65 -0.15 -3.34 2.28zm28.54 6.37c0,0.76 -5.16,6.98 -11.54,14.12 -6.22,7.13 -13.36,15.94 -15.94,19.73 -3.95,6.07 -5.16,6.68 -9.41,6.22 -2.73,-0.15 -5.31,-1.22 -5.92,-2.13 -0.76,-1.22 -3.79,-1.06 -10.63,0.3 -5.31,1.22 -12.75,2.43 -16.7,2.73 -4.1,0.46 -7.28,1.37 -7.28,2.28 0,1.7 26.57,28.73 30.82,33.09l-5.92 -0.15c-16.09,-0.15 -20.34,-1.97 -29.3,-11.99 -4.71,-5.16 -10.93,-10.63 -13.81,-11.99 -6.07,-2.73 -7.59,-8.5 -2.28,-8.5 1.67,0 3.19,0.91 3.19,1.82 0.15,1.06 0.3,2.58 0.46,3.49 0,0.76 3.04,1.52 6.68,1.52l6.38 0 -3.79 -3.04c-4.4,-3.34 -3.04,-5.77 5.01,-8.5 3.79,-1.36 4.86,-2.58 4.86,-5.77 0.15,-4.4 0.61,-4.86 25.96,-21.1 15.33,-9.87 15.33,-9.87 30.36,-11.39 8.2,-0.76 15.94,-1.52 17,-1.67 0.91,0 1.82,0.3 1.82,0.91l0 0zm-85.46 1.52c-3.04,0.3 -7.89,0.3 -10.62,0 -2.58,-0.3 0,-0.61 5.77,-0.61 5.92,0 8.05,0.3 4.86,0.61l0 0zm-18.06 1.52c-1.52,0.3 -3.95,0.3 -5.31,0 -3.43,-1.03 8.44,-1.04 5.31,0zm55.41 3.19c-6.53,4.86 -18.67,11.08 -18.67,9.41 0,-0.91 1.06,-3.64 2.28,-6.07 1.82,-3.64 3.49,-4.55 8.65,-5.01 3.64,-0.3 7.59,-0.61 8.8,-0.76 1.52,-0.15 1.06,0.76 -1.06,2.43l0 0zm-21.71 1.37c0,0.76 -2.28,5.31 -5.01,10.17l-5.01 9.11 -14.27 4.4c-15.63,4.86 -14.42,5.16 -20.04,-4.86 -1.67,-3.19 -4.1,-4.86 -7.74,-5.46 -5.92,-1.22 -15.48,-6.53 -14.12,-7.89 1.06,-1.06 47.67,-6.07 59.05,-6.38 3.95,0 7.14,0.3 7.14,0.91l0 0zm-85.01 8.8c1.06,1.21 3.49,2.28 5.62,2.28 3.04,0 3.34,0.45 1.97,2.88 -0.76,1.67 -1.06,4.1 -0.45,5.46 0.76,2.13 0.3,2.43 -2.73,1.52 -8.65,-2.73 -19.13,-5.31 -22.16,-5.31 -1.82,0 -5.16,-1.67 -7.29,-3.64l-3.95 -3.79 5.01 -0.61c12.45,-1.52 22.16,-1.06 23.99,1.22l-0 0zm-71.95 6.53c-2.28,3.64 -17.76,9.56 -27.63,10.32 -13.21,1.06 -20.49,3.34 -23.07,6.98 -2.73,3.79 -14.12,3.79 -17.46,0 -2.43,-2.58 -2.43,-3.04 0.91,-6.07 4.55,-4.4 40.38,-11.69 59.2,-12.3 4.86,0 8.5,0.45 8.05,1.06zm81.06 13.36c0,2.28 -7.59,12.75 -9.26,12.75 -1.09,0 -9.07,-11.54 -10.47,-13.51 3.54,-0.52 19.73,-3.45 19.73,0.76zm8.35 6.68c0.61,1.97 -0.91,5.31 -4.86,10.62l-5.77 7.59 -2.58 -3.34c-2.73,-3.79 -2.88,-3.49 6.22,-13.81 4.4,-4.86 5.77,-5.16 6.98,-1.06zm92.6 0c1.38,2.07 -10.81,1.12 -12.14,1.06 1.54,-0.31 10.57,-2.07 10.93,-2.43 0.15,0 0.76,0.45 1.22,1.37zm-83.49 6.07c0.91,1.52 -11.08,19.73 -13.06,19.73 -0.45,0 -1.82,-1.06 -2.88,-2.28 -1.52,-1.82 -0.45,-3.64 5.47,-10.63 7.44,-8.5 8.8,-9.41 10.47,-6.83zm92.75 10.32c0.45,12.29 -0.91,13.51 -8.2,7.74 -7.14,-5.31 -18.52,-16.85 -17.91,-17.91 0.3,-0.45 6.22,-0.91 13.21,-0.91l12.6 0.15 0.3 10.93 0 0zm-89.11 17.31c0.15,0.76 -0.45,1.21 -1.36,1.21 -0.76,0 -1.52,-1.82 -1.37,-4.25 0,-3.64 0.15,-3.79 1.37,-1.06 0.76,1.67 1.36,3.49 1.36,4.1zm136.47 74.53c1.06,2.73 4.25,7.89 7.14,11.23 6.07,7.14 6.68,9.56 2.28,9.56 -4.25,0 -13.36,-8.5 -14.42,-13.51 -0.91,-4.55 0.3,-12.3 2.13,-12.3 0.61,0 1.82,2.28 2.88,5.01l0 0zm-120.83 12.45c-0.3,2.43 -1.06,5.16 -1.82,5.92 -2.43,2.43 -6.07,-0.46 -6.07,-4.86 0,-5.31 1.22,-6.68 5.31,-6.07 2.43,0.3 2.88,1.37 2.58,5.01zm-9.26 9.26c5.07,6.2 -16.85,7.59 -16.85,2.27 0,-2.88 1.37,-3.34 12.29,-4.4 1.37,-0.15 3.34,0.76 4.56,2.13l0 0z"/>
   <g style="clip-path:url(#id0)">
    <g>
     <circle class="fil2" cx="7894.37" cy="1483.94" r="175.32"/>
    </g>
   </g>
   <path class="fil3" d="M8823.44 938.39c-46.91,6.22 -93.96,25.65 -133.28,55.25 -11.39,8.5 -31.27,27.32 -50.24,47.82 -7.14,7.44 -10.32,10.02 -12.15,9.26 -6.98,-3.19 -17.31,1.06 -34.31,13.66 -18.67,13.97 -62.69,55.56 -97.15,91.84 -18.37,19.28 -34.16,35.07 -35.07,35.07 -2.58,0 -4.4,25.96 -2.13,30.21 1.52,3.04 0.61,4.25 -9.41,13.81 -9.41,8.96 -11.69,10.47 -14.88,9.56 -2.12,-0.46 -6.22,-1.06 -9.11,-1.06 -4.1,-0.15 -5.31,0.46 -6.07,3.04 -0.46,1.82 -15.18,18.21 -32.64,36.43 -39.62,41.14 -48.12,50.25 -58.9,63.15 -11.99,14.42 -12.45,15.49 -8.8,21.55 1.67,2.73 4.55,6.22 6.22,7.74 3.04,2.73 3.04,2.73 -5.01,11.23 -15.63,16.55 -32.64,41.14 -43.87,63.15 -26.97,70.63 -31.87,91.31 -25.5,181.4 12.45,64.82 45.39,120.98 96.09,163.64 74.53,62.69 177.76,81.66 272.02,50.24 27.78,-9.26 68.16,-31.57 87.28,-48.12l6.83 -5.92 -69.83 -1.06c-38.4,-0.61 -84.55,-0.91 -102.46,-0.76 -35.37,0.45 -48.12,-0.91 -70.59,-7.14 -46.15,-13.06 -83.49,-38.71 -112.63,-77.27 -16.85,-22.47 -27.63,-45.54 -35.67,-75.9 -4.7,-17.61 -4.86,-19.28 -4.86,-50.09 0,-30.06 0.15,-32.94 4.25,-49.18 9.26,-37.04 23.23,-63.6 49.64,-94.27 6.83,-7.89 9.56,-10.17 11.84,-9.56 6.83,1.82 28.38,-15.18 63.76,-50.1 30.21,-29.9 53.28,-57.38 53.28,-63.45 0,-0.91 -1.37,-3.49 -3.04,-5.62l-3.19 -3.95 7.13 -7.14 28.84 17c15.79,9.41 30.82,18.22 33.39,19.58 19.18,11.28 38.27,22.76 57.38,34.15 20.49,12.15 29.6,18.22 28.08,18.98 -1.21,0.61 -5.16,1.67 -8.96,2.28 -3.79,0.46 -17,2.58 -29.6,4.55 -29.75,4.86 -74.53,11.08 -88.19,12.3l-10.78 1.06 -3.49 -10.47c-3.49,-10.32 -9.87,-18.82 -14.12,-18.82 -2.88,0 -6.22,3.95 -4.86,5.92 0.45,0.91 0.91,17.91 0.91,37.65 0,19.89 0.45,37.34 0.76,38.71 1.67,5.92 27.78,2.13 34.3,-4.7 3.49,-3.95 19.13,-7.29 22.47,-4.86 4.71,3.49 6.68,3.64 19.58,1.06 7.14,-1.37 16.24,-2.43 20.04,-2.43 3.79,0 9.11,-0.76 11.84,-1.67 4.4,-1.52 5.31,-1.37 8.8,1.82 4.56,4.4 9.56,13.66 9.56,18.06 0,4.4 4.1,13.81 7.89,17.76 3.19,3.34 3.19,3.49 0.3,3.49 -9.26,0 -52.83,27.78 -65.88,41.9 -7.44,8.05 -9.87,13.51 -11.39,24.9 -1.21,10.93 -4.7,30.36 -8.65,49.33 -5.01,24.14 -5.01,22.77 -0.46,26.41 6.07,4.7 4.7,11.54 -5.77,27.78 -8.96,13.81 -10.32,14.72 -24.59,17.15 -7.74,1.37 -16.7,5.92 -19.58,10.17 -3.64,5.01 -3.04,11.38 1.06,13.66 4.56,2.43 28.08,1.82 42.96,-1.22 6.68,-1.37 13.66,-2.43 15.79,-2.13 15.18,1.22 25.96,0.61 27.48,-1.52 1.97,-3.19 0.15,-20.19 -3.34,-30.36 -3.64,-10.47 -3.64,-15.33 0.15,-20.19 1.82,-2.28 3.64,-8.05 4.55,-14.42 1.52,-10.62 5.62,-20.64 16.7,-40.38 4.25,-7.59 5.16,-11.08 5.92,-22.01l0.91 -13.06 5.92 -1.97c3.34,-1.06 12.15,-3.04 19.73,-4.25 7.59,-1.37 15.79,-3.34 18.22,-4.56 6.53,-3.19 7.44,-2.73 12.75,4.71 7.89,11.23 12.29,13.06 29.14,12.6 12.14,-0.46 15.18,-1.06 19.43,-3.95 3.04,-2.27 4.86,-4.86 4.86,-6.98 0,-3.79 3.49,-7.59 8.65,-9.11 1.82,-0.61 3.49,-2.58 3.79,-4.4 0.76,-5.16 10.17,-4.25 25.5,2.73 16.54,7.44 27.78,8.5 45.39,3.95 7.14,-1.67 14.88,-4.86 17.61,-6.98 5.47,-4.1 6.83,-3.19 6.83,5.16 0,7.59 17.3,19.89 24.74,17.46 4.25,-1.37 2.58,-8.96 -4.1,-19.13 -6.22,-9.41 -8.5,-15.79 -6.98,-20.04 0.91,-2.58 1.22,-2.43 4.4,1.52 1.97,2.43 4.4,6.53 5.47,9.26 3.49,8.05 7.89,9.87 23.07,9.41 11.39,-0.45 14.12,-1.21 18.37,-4.4 10.32,-7.74 14.27,-21.56 10.17,-35.67 -3.64,-12.6 -6.07,-15.33 -19.73,-22.01 -6.68,-3.19 -14.27,-7.74 -17,-9.87 -4.71,-3.95 -4.71,-3.95 -5.77,-0.91 -1.22,3.95 -10.02,4.4 -12.9,0.91 -3.34,-3.95 -8.2,-2.28 -8.81,3.04 -0.91,7.89 -6.37,10.93 -6.37,3.49 0,-1.67 -2.73,-9.87 -6.07,-18.06 -6.98,-17.31 -7.44,-23.38 -2.43,-34 6.22,-13.51 19.28,-33.09 27.63,-41.75 4.4,-4.55 8.65,-10.02 9.41,-12.14 1.21,-2.88 8.35,-7.59 29.3,-18.82 15.33,-8.35 35.07,-18.98 43.87,-23.68 8.8,-4.86 22.16,-11.99 29.6,-15.94 7.59,-3.95 29.75,-15.94 49.33,-26.56 49.94,-27.02 64.97,-34.91 65.88,-34.91 1.97,0 0.61,9.26 -3.49,24.29 -12.14,44.33 -26.72,67.25 -75.14,118.4 -5.16,5.47 -20.34,21.86 -33.85,36.43 -13.36,14.57 -27.78,30.36 -32.03,34.91 -4.4,4.55 -7.89,8.8 -7.89,9.41 0,0.76 2.28,4.4 5.16,8.35 2.73,4.1 6.53,10.17 8.35,13.66 3.95,7.89 10.78,33.85 10.78,41.29 0,6.22 2.43,10.93 4.25,8.35 0.61,-0.91 8.65,-9.87 17.76,-19.73 9.26,-9.87 26.26,-28.23 37.95,-40.83 11.54,-12.45 24.9,-26.87 29.6,-31.88 4.55,-5.01 16.09,-17.61 25.65,-27.78 135.44,-145.45 112.31,-371.75 -74.99,-459.49 -23.53,-11.08 -54.8,-20.65 -78.93,-24.29 -14.12,-1.97 -64.06,-2.13 -79.69,-0.15l-0 0zm74.53 70.74c22.47,4.1 37.8,9.11 57.99,19.13 40.68,20.04 73.47,52.22 93.2,91.08 4.1,8.35 8.96,18.82 10.78,23.38 3.95,10.17 10.32,34.61 11.69,44.17l0.91 6.98 -8.04 5.31c-61.33,41.97 -122.34,84.4 -184.13,125.69 -10.78,7.28 -22.46,14.12 -25.81,15.18 -3.34,1.06 -9.41,3.04 -13.66,4.55 -11.54,4.1 -19.58,6.07 -24.44,6.07 -2.43,0 -6.83,1.37 -9.72,3.04 -13.36,7.29 -18.06,8.8 -33.39,10.47 -8.8,0.91 -29.6,4.71 -46.3,8.5 -16.7,3.79 -34.16,7.59 -38.71,8.5 -4.55,0.91 -9.56,2.28 -11.08,3.19 -3.95,2.13 -6.83,-0.91 -8.96,-8.96 -1.06,-4.4 -3.64,-8.8 -7.29,-12.45 -3.19,-3.04 -6.07,-6.83 -6.38,-8.5 -0.91,-5.01 -4.86,-3.49 -8.04,3.34 -1.67,3.49 -3.49,6.22 -4.1,6.07 -0.61,-0.15 -16.24,-15.03 -34.76,-32.94 -18.14,-17.54 -36.26,-35.09 -54.5,-52.52l6.53 -4.71c9.87,-7.14 40.38,-36.74 52.22,-50.85 18.52,-21.71 20.19,-26.87 13.36,-38.56l-3.79 -6.38 10.32 -9.71c41.59,-39.77 39.62,-37.65 38.71,-42.35 -0.61,-3.49 0,-5.01 3.95,-8.35 3.95,-3.34 4.86,-5.01 4.4,-9.11 -0.45,-4.55 1.22,-6.98 17.46,-24.74 42.05,-46.3 79.24,-66.49 140.72,-76.51 11.84,-1.97 44.63,-0.91 60.87,1.97l0 0zm175.33 215.55c-0.61,7.14 -1.82,13.66 -2.88,14.57 -0.91,0.91 -9.26,5.62 -18.52,10.48 -9.11,4.86 -23.83,12.75 -32.64,17.46 -8.8,4.71 -21.1,11.39 -27.32,14.72 -6.22,3.34 -20.64,11.08 -31.88,17.15 -108.39,58.75 -102.62,55.71 -99.73,51.46 1.37,-1.97 2.58,-5.01 2.58,-6.68 0.15,-2.28 11.84,-10.93 48.27,-35.22 26.41,-17.76 62.54,-41.9 80,-53.74 26.77,-18.23 53.61,-36.37 80.45,-54.49l1.22 5.62c0.76,3.19 0.91,11.54 0.45,18.67l0 -0zm-588.37 4.55c-1.06,2.13 -1.06,3.04 0,3.04 0.76,0 1.52,-0.91 1.67,-1.97 0,-1.21 0.3,-1.21 0.76,-0.15 0.46,1.06 2.13,1.52 3.64,1.06 1.82,-0.45 3.04,0 3.04,1.22 0,1.06 0.46,1.52 0.91,0.91 0.46,-0.45 2.13,0.3 3.65,1.52 2.43,2.13 2.43,3.04 0.76,10.63 -1.06,4.55 -2.88,9.26 -3.95,10.17 -1.21,1.06 -6.07,5.47 -10.78,9.87l-8.65 8.05 -5.77 -3.49c-3.19,-1.97 -7.14,-5.01 -8.96,-6.83 -2.73,-2.88 -2.88,-3.34 -0.76,-4.86 2.13,-1.52 2.13,-1.67 -0.15,-0.91 -5.47,1.82 -2.43,-2.58 11.38,-16.7 7.59,-7.89 14.12,-14.42 14.42,-14.42 0.15,-0.15 -0.3,1.22 -1.22,2.88l0 0zm-15.18 49.03c1.97,0.76 1.82,0.91 -0.15,0.91 -1.37,0.15 -3.34,-0.91 -4.4,-2.12 -1.06,-1.22 -2.58,-1.82 -3.49,-1.22 -0.91,0.61 -1.06,0.15 -0.46,-0.91 0.91,-1.37 1.82,-1.37 3.64,0.3 1.52,1.22 3.64,2.58 4.86,3.04l0 0zm52.52 4.25c4.1,3.79 14.88,4.25 21.25,0.91l4.4 -2.28 30.97 29.91c21.17,20.23 42.15,40.62 63.15,61.02 -20.75,-12.29 -41.48,-24.62 -62.24,-36.89 -13.36,-7.89 -32.79,-19.28 -43.26,-25.5 -10.47,-6.07 -21.86,-12.75 -25.35,-15.03l-6.38 -3.95 5.47 -5.62c6.53,-6.68 7.44,-6.83 11.99,-2.58l0 0zm296.61 74.23c0,0.76 -2.58,2.13 -5.62,2.88 -7.29,2.13 -8.5,2.13 -7.29,0 2.13,-3.34 12.9,-5.92 12.9,-2.88zm4.1 8.65c3.04,9.11 -20.55,7.43 -24.74,9.11 -5.16,1.97 -0.46,-2.58 7.44,-7.14 8.05,-4.7 16.24,-5.62 17.31,-1.97l0 0zm-34.16 7.29c-2.88,2.12 -27.32,6.07 -28.84,4.7 -0.76,-0.76 23.83,-6.68 28.54,-6.83l3.65 -0.15 -3.34 2.28zm28.54 6.37c0,0.76 -5.16,6.98 -11.54,14.12 -6.22,7.13 -13.36,15.94 -15.94,19.73 -3.95,6.07 -5.16,6.68 -9.41,6.22 -2.73,-0.15 -5.31,-1.22 -5.92,-2.13 -0.76,-1.22 -3.79,-1.06 -10.63,0.3 -5.31,1.22 -12.75,2.43 -16.7,2.73 -4.1,0.46 -7.28,1.37 -7.28,2.28 0,1.7 26.57,28.73 30.82,33.09l-5.92 -0.15c-16.09,-0.15 -20.34,-1.97 -29.3,-11.99 -4.71,-5.16 -10.93,-10.63 -13.81,-11.99 -6.07,-2.73 -7.59,-8.5 -2.28,-8.5 1.67,0 3.19,0.91 3.19,1.82 0.15,1.06 0.3,2.58 0.46,3.49 0,0.76 3.04,1.52 6.68,1.52l6.38 0 -3.79 -3.04c-4.4,-3.34 -3.04,-5.77 5.01,-8.5 3.79,-1.36 4.86,-2.58 4.86,-5.77 0.15,-4.4 0.61,-4.86 25.96,-21.1 15.33,-9.87 15.33,-9.87 30.36,-11.39 8.2,-0.76 15.94,-1.52 17,-1.67 0.91,0 1.82,0.3 1.82,0.91l0 0zm-85.46 1.52c-3.04,0.3 -7.89,0.3 -10.62,0 -2.58,-0.3 0,-0.61 5.77,-0.61 5.92,0 8.05,0.3 4.86,0.61l0 0zm-18.06 1.52c-1.52,0.3 -3.95,0.3 -5.31,0 -3.43,-1.03 8.44,-1.04 5.31,0zm55.41 3.19c-6.53,4.86 -18.67,11.08 -18.67,9.41 0,-0.91 1.06,-3.64 2.28,-6.07 1.82,-3.64 3.49,-4.55 8.65,-5.01 3.64,-0.3 7.59,-0.61 8.8,-0.76 1.52,-0.15 1.06,0.76 -1.06,2.43l0 0zm-21.71 1.37c0,0.76 -2.28,5.31 -5.01,10.17l-5.01 9.11 -14.27 4.4c-15.63,4.86 -14.42,5.16 -20.04,-4.86 -1.67,-3.19 -4.1,-4.86 -7.74,-5.46 -5.92,-1.22 -15.48,-6.53 -14.12,-7.89 1.06,-1.06 47.67,-6.07 59.05,-6.38 3.95,0 7.14,0.3 7.14,0.91l0 0zm-85.01 8.8c1.06,1.21 3.49,2.28 5.62,2.28 3.04,0 3.34,0.45 1.97,2.88 -0.76,1.67 -1.06,4.1 -0.45,5.46 0.76,2.13 0.3,2.43 -2.73,1.52 -8.65,-2.73 -19.13,-5.31 -22.16,-5.31 -1.82,0 -5.16,-1.67 -7.29,-3.64l-3.95 -3.79 5.01 -0.61c12.45,-1.52 22.16,-1.06 23.99,1.22l-0 0zm-71.95 6.53c-2.28,3.64 -17.76,9.56 -27.63,10.32 -13.21,1.06 -20.49,3.34 -23.07,6.98 -2.73,3.79 -14.12,3.79 -17.46,0 -2.43,-2.58 -2.43,-3.04 0.91,-6.07 4.55,-4.4 40.38,-11.69 59.2,-12.3 4.86,0 8.5,0.45 8.05,1.06zm81.06 13.36c0,2.28 -7.59,12.75 -9.26,12.75 -1.09,0 -9.07,-11.54 -10.47,-13.51 3.54,-0.52 19.73,-3.45 19.73,0.76zm8.35 6.68c0.61,1.97 -0.91,5.31 -4.86,10.62l-5.77 7.59 -2.58 -3.34c-2.73,-3.79 -2.88,-3.49 6.22,-13.81 4.4,-4.86 5.77,-5.16 6.98,-1.06zm92.6 0c1.38,2.07 -10.81,1.12 -12.14,1.06 1.54,-0.31 10.57,-2.07 10.93,-2.43 0.15,0 0.76,0.45 1.22,1.37zm-83.49 6.07c0.91,1.52 -11.08,19.73 -13.06,19.73 -0.45,0 -1.82,-1.06 -2.88,-2.28 -1.52,-1.82 -0.45,-3.64 5.47,-10.63 7.44,-8.5 8.8,-9.41 10.47,-6.83zm92.75 10.32c0.45,12.29 -0.91,13.51 -8.2,7.74 -7.14,-5.31 -18.52,-16.85 -17.91,-17.91 0.3,-0.45 6.22,-0.91 13.21,-0.91l12.6 0.15 0.3 10.93 0 0zm-89.11 17.31c0.15,0.76 -0.45,1.21 -1.36,1.21 -0.76,0 -1.52,-1.82 -1.37,-4.25 0,-3.64 0.15,-3.79 1.37,-1.06 0.76,1.67 1.36,3.49 1.36,4.1zm136.47 74.53c1.06,2.73 4.25,7.89 7.14,11.23 6.07,7.14 6.68,9.56 2.28,9.56 -4.25,0 -13.36,-8.5 -14.42,-13.51 -0.91,-4.55 0.3,-12.3 2.13,-12.3 0.61,0 1.82,2.28 2.88,5.01l0 0zm-120.83 12.45c-0.3,2.43 -1.06,5.16 -1.82,5.92 -2.43,2.43 -6.07,-0.46 -6.07,-4.86 0,-5.31 1.22,-6.68 5.31,-6.07 2.43,0.3 2.88,1.37 2.58,5.01zm-9.26 9.26c5.07,6.2 -16.85,7.59 -16.85,2.27 0,-2.88 1.37,-3.34 12.29,-4.4 1.37,-0.15 3.34,0.76 4.56,2.13l0 0z"/>
   <polygon class="fil4" points="8632.61,1619.39 8711.68,1619.39 8794.68,1691.46 8877.68,1619.39 8920.86,1619.39 8920.86,1779.22 8865.9,1779.22 8865.9,1696.51 8794.68,1758.47 8723.18,1696.51 8723.18,1779.22 8668.5,1779.22 8668.5,1660.61 "/>
   <polygon id="1" class="fil4" points="9004.98,1619.39 9094.71,1619.39 9202.11,1779.22 9140.42,1779.22 9111.26,1737.17 9033.31,1737.17 9003.58,1779.22 8942.17,1779.22 8998.53,1695.38 9084.06,1695.38 9070.04,1674.07 9013.68,1674.07 9030.22,1648.56 "/>
   <path id="2" class="fil4" d="M9261.27 1720.34l135.44 0 0 16.83 -173.29 0 0 42.06 198.24 0c3.37,0 6.78,-0.79 10.23,-2.38 3.46,-1.59 6.64,-3.6 9.53,-6.03 2.9,-2.43 5.28,-5.09 7.15,-7.99 1.87,-2.9 2.8,-5.66 2.8,-8.27l0 -43.46c0,-6.17 -1.07,-11.31 -3.22,-15.42 -2.15,-4.11 -5,-7.48 -8.55,-10.09 -3.55,-2.62 -7.62,-4.49 -12.2,-5.61 -4.58,-1.12 -9.3,-1.68 -14.16,-1.68l-135.15 0 0 -16.82 173.29 0 0 -42.06 -198.24 0c-3.18,0 -6.5,0.79 -9.96,2.38 -3.46,1.59 -6.63,3.65 -9.53,6.17 -2.9,2.52 -5.33,5.23 -7.29,8.13 -1.96,2.9 -2.94,5.66 -2.94,8.27l0 42.9c0,6.17 1.08,11.36 3.22,15.56 2.15,4.21 5,7.62 8.55,10.23 3.55,2.62 7.57,4.48 12.06,5.61 4.49,1.12 9.16,1.68 14.02,1.68z"/>
   <polygon id="3" class="fil4" points="9589.91,1661.17 9510.83,1661.17 9474.38,1619.39 9732.35,1619.39 9732.35,1661.17 9644.87,1661.17 9644.87,1779.22 9589.91,1779.22 "/>
   <polygon id="4" class="fil4" points="9753.66,1619.39 9844.8,1619.39 9844.8,1779.22 9790.12,1779.22 9790.12,1661.17 "/>
   <path id="5" class="fil4" d="M10086.22 1737.44l-159.55 0 0 -76.27 159.55 0 0 -41.78 -214.51 0 0 125.06c0,10.66 3.97,19.11 11.92,25.38 7.94,6.26 18.93,9.39 32.95,9.39l169.64 0 0 -41.78z"/>
   <polygon id="6" class="fil4" points="10284.47,1619.39 10374.2,1619.39 10481.59,1779.22 10419.9,1779.22 10390.74,1737.17 10312.79,1737.17 10283.07,1779.22 10221.66,1779.22 10278.02,1695.38 10363.54,1695.38 10349.52,1674.07 10293.16,1674.07 10309.7,1648.56 "/>
   <path id="7" class="fil4" d="M10500.1 1685.29l167.96 0 0 -24.12 -167.96 0 -36.45 -41.78 222.36 0c7.1,0 13.04,0.79 17.8,2.38 4.77,1.59 8.55,3.83 11.36,6.73 2.8,2.9 4.81,6.31 6.03,10.23 1.22,3.92 1.82,8.23 1.82,12.9l0 40.66c0,5.23 -1.08,9.95 -3.22,14.16 -2.15,4.21 -4.91,7.85 -8.27,10.93 -3.36,3.09 -7.2,5.47 -11.5,7.15 -4.3,1.68 -8.5,2.52 -12.62,2.52l-132.63 0 0 52.15 -54.68 0 0 -93.94z"/>
   <path id="8" class="fil4" d="M10770.96 1685.29l167.96 0 0 -24.12 -167.96 0 -36.45 -41.78 222.36 0c7.1,0 13.04,0.79 17.8,2.38 4.77,1.59 8.55,3.83 11.36,6.73 2.8,2.9 4.81,6.31 6.03,10.23 1.22,3.92 1.82,8.23 1.82,12.9l0 40.66c0,5.23 -1.08,9.95 -3.22,14.16 -2.15,4.21 -4.91,7.85 -8.27,10.93 -3.36,3.09 -7.2,5.47 -11.5,7.15 -4.3,1.68 -8.5,2.52 -12.62,2.52l-132.63 0 0 52.15 -54.68 0 0 -93.94z"/>
   <polygon id="9" class="fil4" points="11233.35,1779.22 11041.83,1779.22 11041.83,1661.17 11005.38,1619.39 11096.51,1619.39 11096.51,1737.44 11233.35,1737.44 "/>
   <polygon id="10" class="fil4" points="11226.62,1619.39 11317.75,1619.39 11317.75,1779.22 11263.07,1779.22 11263.07,1661.17 "/>
   <path id="11" class="fil4" d="M11586.38 1619.39l0 41.78 -210.86 0 -36.45 -41.78 247.32 0zm-210.86 117.49l210.58 0 0 42.34 -210.58 0 0 -42.34zm0 -58.89l157.31 0 0 42.06 -157.31 0 0 -42.06z"/>
   <path id="12" class="fil4" d="M11828.09 1619.39c13.46,0 23.09,2.99 28.88,8.97 5.79,5.98 8.69,13.74 8.69,23.27l0 40.66c0,10.66 -4.07,18.88 -12.2,24.68 -8.13,5.79 -19.3,8.79 -33.51,8.97l53.56 53.28 -67.86 0 -53.84 -52.15 -53 0 0 52.15 -54.68 0 0 -93.94 166.56 0 0 -24.12 -166.56 0 -36.45 -41.78 220.4 0z"/>
   <path class="fil4" d="M7524.47 1369.29l259.56 0 15.17 -37.26 -259.56 0 -30.33 -64.56 343.62 0c10.98,0 19.64,1.23 26,3.68 6.36,2.46 10.83,5.92 13.43,10.4 2.6,4.48 3.61,9.75 3.03,15.82 -0.58,6.07 -2.31,12.71 -5.2,19.93l-25.56 62.83c-3.18,8.09 -7.8,15.38 -13.87,21.88 -6.07,6.5 -12.64,12.13 -19.72,16.9 -7.08,4.77 -14.45,8.45 -22.1,11.05 -7.66,2.6 -14.66,3.9 -21.02,3.9l-204.96 0 -32.5 80.6 -84.5 0 58.5 -145.16z"/>
   <path class="fil4" d="M8268.47 1267.46c20.8,0 33.8,4.62 39,13.87 5.2,9.24 4.91,21.23 -0.87,35.97l-25.57 62.83c-6.64,16.47 -18.05,29.18 -34.23,38.13 -16.18,8.96 -35.24,13.58 -57.2,13.87l49.4 82.33 -104.86 0 -50.7 -80.6 -81.9 0 -32.5 80.6 -84.5 0 58.5 -145.16 257.39 0 15.17 -37.26 -257.39 0 -30.33 -64.56 340.58 0z"/>
   <path class="fil4" d="M9411.1 1358.02l-26.43 65 -158.16 0 -36.83 91.43 -84.5 0 63.26 -156.43 242.66 0zm-262.59 -90.56l381.75 0 -26 64.56 -325.42 0 -30.33 -64.56z"/>
   <path id="1" class="fil4" d="M9944.94 1267.46l-26 64.56 -325.85 0 -30.33 -64.56 382.18 0zm-399.08 181.56l325.42 0 -26.43 65.43 -325.42 0 26.43 -65.43zm36.83 -91l243.09 0 -26.43 65 -243.09 0 26.43 -65z"/>
   <path id="2" class="fil4" d="M9982.21 1423.45l209.29 0 -10.4 26 -267.79 0 -26.43 65 306.35 0c5.2,0 10.98,-1.23 17.33,-3.68 6.36,-2.45 12.57,-5.56 18.63,-9.32 6.07,-3.76 11.41,-7.87 16.03,-12.35 4.62,-4.48 7.8,-8.74 9.53,-12.78l26.87 -67.16c3.75,-9.53 5.27,-17.48 4.55,-23.83 -0.72,-6.36 -3.03,-11.56 -6.93,-15.6 -3.9,-4.04 -9.03,-6.93 -15.38,-8.66 -6.36,-1.73 -13.29,-2.6 -20.8,-2.6l-208.86 0 10.83 -26 267.79 0 26 -65 -306.35 0c-4.91,0 -10.54,1.23 -16.9,3.68 -6.36,2.46 -12.57,5.63 -18.63,9.53 -6.07,3.9 -11.48,8.09 -16.25,12.57 -4.77,4.48 -8.02,8.74 -9.75,12.78l-26.43 66.3c-4.05,9.53 -5.71,17.55 -4.98,24.05 0.72,6.5 3.03,11.77 6.93,15.82 3.9,4.05 8.96,6.93 15.17,8.67 6.21,1.73 13.07,2.6 20.58,2.6z"/>
   <path id="3" class="fil4" d="M10378.69 1423.45l209.29 0 -10.4 26 -267.79 0 -26.43 65 306.35 0c5.2,0 10.98,-1.23 17.33,-3.68 6.36,-2.45 12.57,-5.56 18.63,-9.32 6.07,-3.76 11.41,-7.87 16.03,-12.35 4.62,-4.48 7.8,-8.74 9.53,-12.78l26.87 -67.16c3.75,-9.53 5.27,-17.48 4.55,-23.83 -0.72,-6.36 -3.03,-11.56 -6.93,-15.6 -3.9,-4.04 -9.03,-6.93 -15.38,-8.66 -6.36,-1.73 -13.29,-2.6 -20.8,-2.6l-208.86 0 10.83 -26 267.79 0 26 -65 -306.35 0c-4.91,0 -10.54,1.23 -16.9,3.68 -6.36,2.46 -12.57,5.63 -18.63,9.53 -6.07,3.9 -11.48,8.09 -16.25,12.57 -4.77,4.48 -8.02,8.74 -9.75,12.78l-26.43 66.3c-4.05,9.53 -5.71,17.55 -4.98,24.05 0.72,6.5 3.03,11.77 6.93,15.82 3.9,4.05 8.96,6.93 15.17,8.67 6.21,1.73 13.07,2.6 20.58,2.6z"/>
   <polygon id="4" class="fil4" points="10770.84,1267.46 10911.67,1267.46 10812.01,1514.45 10727.51,1514.45 10801.17,1332.02 "/>
   <path id="5" class="fil4" d="M11257.45 1267.46c11.27,0 20.37,1.23 27.3,3.68 6.93,2.46 12.06,5.85 15.38,10.18 3.32,4.33 4.91,9.61 4.77,15.82 -0.15,6.21 -1.66,12.93 -4.55,20.15l-58.06 143.43c-6.65,16.47 -18.06,29.54 -34.23,39.22 -16.18,9.68 -35.1,14.52 -56.76,14.52l-228.36 0c-21.67,0 -36.69,-4.84 -45.06,-14.52 -8.38,-9.68 -9.24,-22.75 -2.6,-39.22l37.7 -93.59 84.93 0 -33.37 82.76 197.16 0 47.66 -117.86 -282.09 0 6.07 -14.73c5.78,-14.73 15.38,-26.72 28.82,-35.97 13.43,-9.24 31.42,-13.87 53.95,-13.87l241.36 0z"/>
   <polygon id="6" class="fil4" points="11338.05,1267.46 11458.94,1267.46 11592.84,1401.79 11647,1267.46 11732.36,1267.46 11632.7,1514.45 11569,1514.45 11432.94,1381.42 11379.21,1514.45 11294.72,1514.45 11368.38,1332.02 "/>
   <polygon id="7" class="fil4" points="11862.36,1267.46 12001.02,1267.46 12067.31,1514.45 11971.99,1514.45 11953.35,1449.45 11832.89,1449.45 11760.53,1514.45 11665.63,1514.45 11805.16,1384.89 11937.32,1384.89 11929.09,1351.96 11841.99,1351.96 11883.16,1312.53 "/>
   <polygon id="8" class="fil4" points="12389.7,1514.45 12093.75,1514.45 12167.41,1332.02 12137.08,1267.46 12277.9,1267.46 12204.24,1449.88 12415.7,1449.88 "/>
  </g>
  <g id="_3222490826096">
   <rect class="fil0" x="0" y="0" width="6307.28" height="2780.82"/>
   <path class="fil1" d="M2217.81 905.02c-46.91,6.22 -93.96,25.65 -133.28,55.25 -11.39,8.5 -31.27,27.32 -50.24,47.82 -7.14,7.44 -10.32,10.02 -12.15,9.26 -6.98,-3.19 -17.31,1.06 -34.31,13.66 -18.67,13.97 -62.69,55.56 -97.15,91.84 -18.37,19.28 -34.16,35.07 -35.07,35.07 -2.58,0 -4.4,25.96 -2.13,30.21 1.52,3.04 0.61,4.25 -9.41,13.81 -9.41,8.96 -11.69,10.47 -14.88,9.56 -2.12,-0.46 -6.22,-1.06 -9.11,-1.06 -4.1,-0.15 -5.31,0.46 -6.07,3.04 -0.46,1.82 -15.18,18.21 -32.64,36.43 -39.62,41.14 -48.12,50.25 -58.9,63.15 -11.99,14.42 -12.45,15.49 -8.8,21.55 1.67,2.73 4.55,6.22 6.22,7.74 3.04,2.73 3.04,2.73 -5.01,11.23 -15.63,16.55 -32.64,41.14 -43.87,63.15 -26.97,70.63 -31.87,91.31 -25.5,181.4 12.45,64.82 45.39,120.98 96.09,163.64 74.53,62.69 177.76,81.66 272.02,50.24 27.78,-9.26 68.16,-31.57 87.28,-48.12l6.83 -5.92 -69.83 -1.06c-38.4,-0.61 -84.55,-0.91 -102.46,-0.76 -35.37,0.45 -48.12,-0.91 -70.59,-7.14 -46.15,-13.06 -83.49,-38.71 -112.63,-77.27 -16.85,-22.47 -27.63,-45.54 -35.67,-75.9 -4.7,-17.61 -4.86,-19.28 -4.86,-50.09 0,-30.06 0.15,-32.94 4.25,-49.18 9.26,-37.04 23.23,-63.6 49.64,-94.27 6.83,-7.89 9.56,-10.17 11.84,-9.56 6.83,1.82 28.38,-15.18 63.76,-50.1 30.21,-29.9 53.28,-57.38 53.28,-63.45 0,-0.91 -1.37,-3.49 -3.04,-5.62l-3.19 -3.95 7.13 -7.14 28.84 17c15.79,9.41 30.82,18.22 33.39,19.58 19.18,11.28 38.27,22.76 57.38,34.15 20.49,12.15 29.6,18.22 28.08,18.98 -1.21,0.61 -5.16,1.67 -8.96,2.28 -3.79,0.46 -17,2.58 -29.6,4.55 -29.75,4.86 -74.53,11.08 -88.19,12.3l-10.78 1.06 -3.49 -10.47c-3.49,-10.32 -9.87,-18.82 -14.12,-18.82 -2.88,0 -6.22,3.95 -4.86,5.92 0.45,0.91 0.91,17.91 0.91,37.65 0,19.89 0.45,37.34 0.76,38.71 1.67,5.92 27.78,2.13 34.3,-4.7 3.49,-3.95 19.13,-7.29 22.47,-4.86 4.71,3.49 6.68,3.64 19.58,1.06 7.14,-1.37 16.24,-2.43 20.04,-2.43 3.79,0 9.11,-0.76 11.84,-1.67 4.4,-1.52 5.31,-1.37 8.8,1.82 4.56,4.4 9.56,13.66 9.56,18.06 0,4.4 4.1,13.81 7.89,17.76 3.19,3.34 3.19,3.49 0.3,3.49 -9.26,0 -52.83,27.78 -65.88,41.9 -7.44,8.05 -9.87,13.51 -11.39,24.9 -1.21,10.93 -4.7,30.36 -8.65,49.33 -5.01,24.14 -5.01,22.77 -0.46,26.41 6.07,4.7 4.7,11.54 -5.77,27.78 -8.96,13.81 -10.32,14.72 -24.59,17.15 -7.74,1.37 -16.7,5.92 -19.58,10.17 -3.64,5.01 -3.04,11.38 1.06,13.66 4.56,2.43 28.08,1.82 42.96,-1.22 6.68,-1.37 13.66,-2.43 15.79,-2.13 15.18,1.22 25.96,0.61 27.48,-1.52 1.97,-3.19 0.15,-20.19 -3.34,-30.36 -3.64,-10.47 -3.64,-15.33 0.15,-20.19 1.82,-2.28 3.64,-8.05 4.55,-14.42 1.52,-10.62 5.62,-20.64 16.7,-40.38 4.25,-7.59 5.16,-11.08 5.92,-22.01l0.91 -13.06 5.92 -1.97c3.34,-1.06 12.15,-3.04 19.73,-4.25 7.59,-1.37 15.79,-3.34 18.22,-4.56 6.53,-3.19 7.44,-2.73 12.75,4.71 7.89,11.23 12.29,13.06 29.14,12.6 12.14,-0.46 15.18,-1.06 19.43,-3.95 3.04,-2.27 4.86,-4.86 4.86,-6.98 0,-3.79 3.49,-7.59 8.65,-9.11 1.82,-0.61 3.49,-2.58 3.79,-4.4 0.76,-5.16 10.17,-4.25 25.5,2.73 16.54,7.44 27.78,8.5 45.39,3.95 7.14,-1.67 14.88,-4.86 17.61,-6.98 5.47,-4.1 6.83,-3.19 6.83,5.16 0,7.59 17.3,19.89 24.74,17.46 4.25,-1.37 2.58,-8.96 -4.1,-19.13 -6.22,-9.41 -8.5,-15.79 -6.98,-20.04 0.91,-2.58 1.22,-2.43 4.4,1.52 1.97,2.43 4.4,6.53 5.47,9.26 3.49,8.05 7.89,9.87 23.07,9.41 11.39,-0.45 14.12,-1.21 18.37,-4.4 10.32,-7.74 14.27,-21.56 10.17,-35.67 -3.64,-12.6 -6.07,-15.33 -19.73,-22.01 -6.68,-3.19 -14.27,-7.74 -17,-9.87 -4.71,-3.95 -4.71,-3.95 -5.77,-0.91 -1.22,3.95 -10.02,4.4 -12.9,0.91 -3.34,-3.95 -8.2,-2.28 -8.81,3.04 -0.91,7.89 -6.37,10.93 -6.37,3.49 0,-1.67 -2.73,-9.87 -6.07,-18.06 -6.98,-17.31 -7.44,-23.38 -2.43,-34 6.22,-13.51 19.28,-33.09 27.63,-41.75 4.4,-4.55 8.65,-10.02 9.41,-12.14 1.21,-2.88 8.35,-7.59 29.3,-18.82 15.33,-8.35 35.07,-18.98 43.87,-23.68 8.8,-4.86 22.16,-11.99 29.6,-15.94 7.59,-3.95 29.75,-15.94 49.33,-26.56 49.94,-27.02 64.97,-34.91 65.88,-34.91 1.97,0 0.61,9.26 -3.49,24.29 -12.14,44.33 -26.72,67.25 -75.14,118.4 -5.16,5.47 -20.34,21.86 -33.85,36.43 -13.36,14.57 -27.78,30.36 -32.03,34.91 -4.4,4.55 -7.89,8.8 -7.89,9.41 0,0.76 2.28,4.4 5.16,8.35 2.73,4.1 6.53,10.17 8.35,13.66 3.95,7.89 10.78,33.85 10.78,41.29 0,6.22 2.43,10.93 4.25,8.35 0.61,-0.91 8.65,-9.87 17.76,-19.73 9.26,-9.87 26.26,-28.23 37.95,-40.83 11.54,-12.45 24.9,-26.87 29.6,-31.88 4.55,-5.01 16.09,-17.61 25.65,-27.78 135.44,-145.45 112.31,-371.75 -74.99,-459.49 -23.53,-11.08 -54.8,-20.65 -78.93,-24.29 -14.12,-1.97 -64.06,-2.13 -79.69,-0.15l-0 0zm74.53 70.74c22.47,4.1 37.8,9.11 57.99,19.13 40.68,20.04 73.47,52.22 93.2,91.08 4.1,8.35 8.96,18.82 10.78,23.38 3.95,10.17 10.32,34.61 11.69,44.17l0.91 6.98 -8.04 5.31c-61.33,41.97 -122.34,84.4 -184.13,125.69 -10.78,7.28 -22.46,14.12 -25.81,15.18 -3.34,1.06 -9.41,3.04 -13.66,4.55 -11.54,4.1 -19.58,6.07 -24.44,6.07 -2.43,0 -6.83,1.37 -9.72,3.04 -13.36,7.29 -18.06,8.8 -33.39,10.47 -8.8,0.91 -29.6,4.71 -46.3,8.5 -16.7,3.79 -34.16,7.59 -38.71,8.5 -4.55,0.91 -9.56,2.28 -11.08,3.19 -3.95,2.13 -6.83,-0.91 -8.96,-8.96 -1.06,-4.4 -3.64,-8.8 -7.29,-12.45 -3.19,-3.04 -6.07,-6.83 -6.38,-8.5 -0.91,-5.01 -4.86,-3.49 -8.04,3.34 -1.67,3.49 -3.49,6.22 -4.1,6.07 -0.61,-0.15 -16.24,-15.03 -34.76,-32.94 -18.14,-17.54 -36.26,-35.09 -54.5,-52.52l6.53 -4.71c9.87,-7.14 40.38,-36.74 52.22,-50.85 18.52,-21.71 20.19,-26.87 13.36,-38.56l-3.79 -6.38 10.32 -9.71c41.59,-39.77 39.62,-37.65 38.71,-42.35 -0.61,-3.49 0,-5.01 3.95,-8.35 3.95,-3.34 4.86,-5.01 4.4,-9.11 -0.45,-4.55 1.22,-6.98 17.46,-24.74 42.05,-46.3 79.24,-66.49 140.72,-76.51 11.84,-1.97 44.63,-0.91 60.87,1.97l0 0zm175.33 215.55c-0.61,7.14 -1.82,13.66 -2.88,14.57 -0.91,0.91 -9.26,5.62 -18.52,10.48 -9.11,4.86 -23.83,12.75 -32.64,17.46 -8.8,4.71 -21.1,11.39 -27.32,14.72 -6.22,3.34 -20.64,11.08 -31.88,17.15 -108.39,58.75 -102.62,55.71 -99.73,51.46 1.37,-1.97 2.58,-5.01 2.58,-6.68 0.15,-2.28 11.84,-10.93 48.27,-35.22 26.41,-17.76 62.54,-41.9 80,-53.74 26.77,-18.23 53.61,-36.37 80.45,-54.49l1.22 5.62c0.76,3.19 0.91,11.54 0.45,18.67l0 -0zm-588.37 4.55c-1.06,2.13 -1.06,3.04 0,3.04 0.76,0 1.52,-0.91 1.67,-1.97 0,-1.21 0.3,-1.21 0.76,-0.15 0.46,1.06 2.13,1.52 3.64,1.06 1.82,-0.45 3.04,0 3.04,1.22 0,1.06 0.46,1.52 0.91,0.91 0.46,-0.45 2.13,0.3 3.65,1.52 2.43,2.13 2.43,3.04 0.76,10.63 -1.06,4.55 -2.88,9.26 -3.95,10.17 -1.21,1.06 -6.07,5.47 -10.78,9.87l-8.65 8.05 -5.77 -3.49c-3.19,-1.97 -7.14,-5.01 -8.96,-6.83 -2.73,-2.88 -2.88,-3.34 -0.76,-4.86 2.13,-1.52 2.13,-1.67 -0.15,-0.91 -5.47,1.82 -2.43,-2.58 11.38,-16.7 7.59,-7.89 14.12,-14.42 14.42,-14.42 0.15,-0.15 -0.3,1.22 -1.22,2.88l0 0zm-15.18 49.03c1.97,0.76 1.82,0.91 -0.15,0.91 -1.37,0.15 -3.34,-0.91 -4.4,-2.12 -1.06,-1.22 -2.58,-1.82 -3.49,-1.22 -0.91,0.61 -1.06,0.15 -0.46,-0.91 0.91,-1.37 1.82,-1.37 3.64,0.3 1.52,1.22 3.64,2.58 4.86,3.04l0 0zm52.52 4.25c4.1,3.79 14.88,4.25 21.25,0.91l4.4 -2.28 30.97 29.91c21.17,20.23 42.15,40.62 63.15,61.02 -20.75,-12.29 -41.48,-24.62 -62.24,-36.89 -13.36,-7.89 -32.79,-19.28 -43.26,-25.5 -10.47,-6.07 -21.86,-12.75 -25.35,-15.03l-6.38 -3.95 5.47 -5.62c6.53,-6.68 7.44,-6.83 11.99,-2.58l0 0zm296.61 74.23c0,0.76 -2.58,2.13 -5.62,2.88 -7.29,2.13 -8.5,2.13 -7.29,0 2.13,-3.34 12.9,-5.92 12.9,-2.88zm4.1 8.65c3.04,9.11 -20.55,7.43 -24.74,9.11 -5.16,1.97 -0.46,-2.58 7.44,-7.14 8.05,-4.7 16.24,-5.62 17.31,-1.97l0 0zm-34.16 7.29c-2.88,2.12 -27.32,6.07 -28.84,4.7 -0.76,-0.76 23.83,-6.68 28.54,-6.83l3.65 -0.15 -3.34 2.28zm28.54 6.37c0,0.76 -5.16,6.98 -11.54,14.12 -6.22,7.13 -13.36,15.94 -15.94,19.73 -3.95,6.07 -5.16,6.68 -9.41,6.22 -2.73,-0.15 -5.31,-1.22 -5.92,-2.13 -0.76,-1.22 -3.79,-1.06 -10.63,0.3 -5.31,1.22 -12.75,2.43 -16.7,2.73 -4.1,0.46 -7.28,1.37 -7.28,2.28 0,1.7 26.57,28.73 30.82,33.09l-5.92 -0.15c-16.09,-0.15 -20.34,-1.97 -29.3,-11.99 -4.71,-5.16 -10.93,-10.63 -13.81,-11.99 -6.07,-2.73 -7.59,-8.5 -2.28,-8.5 1.67,0 3.19,0.91 3.19,1.82 0.15,1.06 0.3,2.58 0.46,3.49 0,0.76 3.04,1.52 6.68,1.52l6.38 0 -3.79 -3.04c-4.4,-3.34 -3.04,-5.77 5.01,-8.5 3.79,-1.36 4.86,-2.58 4.86,-5.77 0.15,-4.4 0.61,-4.86 25.96,-21.1 15.33,-9.87 15.33,-9.87 30.36,-11.39 8.2,-0.76 15.94,-1.52 17,-1.67 0.91,0 1.82,0.3 1.82,0.91l0 0zm-85.46 1.52c-3.04,0.3 -7.89,0.3 -10.62,0 -2.58,-0.3 0,-0.61 5.77,-0.61 5.92,0 8.05,0.3 4.86,0.61l0 0zm-18.06 1.52c-1.52,0.3 -3.95,0.3 -5.31,0 -3.43,-1.03 8.44,-1.04 5.31,0zm55.41 3.19c-6.53,4.86 -18.67,11.08 -18.67,9.41 0,-0.91 1.06,-3.64 2.28,-6.07 1.82,-3.64 3.49,-4.55 8.65,-5.01 3.64,-0.3 7.59,-0.61 8.8,-0.76 1.52,-0.15 1.06,0.76 -1.06,2.43l0 0zm-21.71 1.37c0,0.76 -2.28,5.31 -5.01,10.17l-5.01 9.11 -14.27 4.4c-15.63,4.86 -14.42,5.16 -20.04,-4.86 -1.67,-3.19 -4.1,-4.86 -7.74,-5.46 -5.92,-1.22 -15.48,-6.53 -14.12,-7.89 1.06,-1.06 47.67,-6.07 59.05,-6.38 3.95,0 7.14,0.3 7.14,0.91l0 0zm-85.01 8.8c1.06,1.21 3.49,2.28 5.62,2.28 3.04,0 3.34,0.45 1.97,2.88 -0.76,1.67 -1.06,4.1 -0.45,5.46 0.76,2.13 0.3,2.43 -2.73,1.52 -8.65,-2.73 -19.13,-5.31 -22.16,-5.31 -1.82,0 -5.16,-1.67 -7.29,-3.64l-3.95 -3.79 5.01 -0.61c12.45,-1.52 22.16,-1.06 23.99,1.22l-0 0zm-71.95 6.53c-2.28,3.64 -17.76,9.56 -27.63,10.32 -13.21,1.06 -20.49,3.34 -23.07,6.98 -2.73,3.79 -14.12,3.79 -17.46,0 -2.43,-2.58 -2.43,-3.04 0.91,-6.07 4.55,-4.4 40.38,-11.69 59.2,-12.3 4.86,0 8.5,0.45 8.05,1.06zm81.06 13.36c0,2.28 -7.59,12.75 -9.26,12.75 -1.09,0 -9.07,-11.54 -10.47,-13.51 3.54,-0.52 19.73,-3.45 19.73,0.76zm8.35 6.68c0.61,1.97 -0.91,5.31 -4.86,10.62l-5.77 7.59 -2.58 -3.34c-2.73,-3.79 -2.88,-3.49 6.22,-13.81 4.4,-4.86 5.77,-5.16 6.98,-1.06zm92.6 0c1.38,2.07 -10.81,1.12 -12.14,1.06 1.54,-0.31 10.57,-2.07 10.93,-2.43 0.15,0 0.76,0.45 1.22,1.37zm-83.49 6.07c0.91,1.52 -11.08,19.73 -13.06,19.73 -0.45,0 -1.82,-1.06 -2.88,-2.28 -1.52,-1.82 -0.45,-3.64 5.47,-10.63 7.44,-8.5 8.8,-9.41 10.47,-6.83zm92.75 10.32c0.45,12.29 -0.91,13.51 -8.2,7.74 -7.14,-5.31 -18.52,-16.85 -17.91,-17.91 0.3,-0.45 6.22,-0.91 13.21,-0.91l12.6 0.15 0.3 10.93 0 0zm-89.11 17.31c0.15,0.76 -0.45,1.21 -1.36,1.21 -0.76,0 -1.52,-1.82 -1.37,-4.25 0,-3.64 0.15,-3.79 1.37,-1.06 0.76,1.67 1.36,3.49 1.36,4.1zm136.47 74.53c1.06,2.73 4.25,7.89 7.14,11.23 6.07,7.14 6.68,9.56 2.28,9.56 -4.25,0 -13.36,-8.5 -14.42,-13.51 -0.91,-4.55 0.3,-12.3 2.13,-12.3 0.61,0 1.82,2.28 2.88,5.01l0 0zm-120.83 12.45c-0.3,2.43 -1.06,5.16 -1.82,5.92 -2.43,2.43 -6.07,-0.46 -6.07,-4.86 0,-5.31 1.22,-6.68 5.31,-6.07 2.43,0.3 2.88,1.37 2.58,5.01zm-9.26 9.26c5.07,6.2 -16.85,7.59 -16.85,2.27 0,-2.88 1.37,-3.34 12.29,-4.4 1.37,-0.15 3.34,0.76 4.56,2.13l0 0z"/>
   <g style="clip-path:url(#id1)">
    <g>
     <circle class="fil5" cx="1288.73" cy="1450.58" r="175.32"/>
    </g>
   </g>
   <path class="fil3" d="M2217.81 905.02c-46.91,6.22 -93.96,25.65 -133.28,55.25 -11.39,8.5 -31.27,27.32 -50.24,47.82 -7.14,7.44 -10.32,10.02 -12.15,9.26 -6.98,-3.19 -17.31,1.06 -34.31,13.66 -18.67,13.97 -62.69,55.56 -97.15,91.84 -18.37,19.28 -34.16,35.07 -35.07,35.07 -2.58,0 -4.4,25.96 -2.13,30.21 1.52,3.04 0.61,4.25 -9.41,13.81 -9.41,8.96 -11.69,10.47 -14.88,9.56 -2.12,-0.46 -6.22,-1.06 -9.11,-1.06 -4.1,-0.15 -5.31,0.46 -6.07,3.04 -0.46,1.82 -15.18,18.21 -32.64,36.43 -39.62,41.14 -48.12,50.25 -58.9,63.15 -11.99,14.42 -12.45,15.49 -8.8,21.55 1.67,2.73 4.55,6.22 6.22,7.74 3.04,2.73 3.04,2.73 -5.01,11.23 -15.63,16.55 -32.64,41.14 -43.87,63.15 -26.97,70.63 -31.87,91.31 -25.5,181.4 12.45,64.82 45.39,120.98 96.09,163.64 74.53,62.69 177.76,81.66 272.02,50.24 27.78,-9.26 68.16,-31.57 87.28,-48.12l6.83 -5.92 -69.83 -1.06c-38.4,-0.61 -84.55,-0.91 -102.46,-0.76 -35.37,0.45 -48.12,-0.91 -70.59,-7.14 -46.15,-13.06 -83.49,-38.71 -112.63,-77.27 -16.85,-22.47 -27.63,-45.54 -35.67,-75.9 -4.7,-17.61 -4.86,-19.28 -4.86,-50.09 0,-30.06 0.15,-32.94 4.25,-49.18 9.26,-37.04 23.23,-63.6 49.64,-94.27 6.83,-7.89 9.56,-10.17 11.84,-9.56 6.83,1.82 28.38,-15.18 63.76,-50.1 30.21,-29.9 53.28,-57.38 53.28,-63.45 0,-0.91 -1.37,-3.49 -3.04,-5.62l-3.19 -3.95 7.13 -7.14 28.84 17c15.79,9.41 30.82,18.22 33.39,19.58 19.18,11.28 38.27,22.76 57.38,34.15 20.49,12.15 29.6,18.22 28.08,18.98 -1.21,0.61 -5.16,1.67 -8.96,2.28 -3.79,0.46 -17,2.58 -29.6,4.55 -29.75,4.86 -74.53,11.08 -88.19,12.3l-10.78 1.06 -3.49 -10.47c-3.49,-10.32 -9.87,-18.82 -14.12,-18.82 -2.88,0 -6.22,3.95 -4.86,5.92 0.45,0.91 0.91,17.91 0.91,37.65 0,19.89 0.45,37.34 0.76,38.71 1.67,5.92 27.78,2.13 34.3,-4.7 3.49,-3.95 19.13,-7.29 22.47,-4.86 4.71,3.49 6.68,3.64 19.58,1.06 7.14,-1.37 16.24,-2.43 20.04,-2.43 3.79,0 9.11,-0.76 11.84,-1.67 4.4,-1.52 5.31,-1.37 8.8,1.82 4.56,4.4 9.56,13.66 9.56,18.06 0,4.4 4.1,13.81 7.89,17.76 3.19,3.34 3.19,3.49 0.3,3.49 -9.26,0 -52.83,27.78 -65.88,41.9 -7.44,8.05 -9.87,13.51 -11.39,24.9 -1.21,10.93 -4.7,30.36 -8.65,49.33 -5.01,24.14 -5.01,22.77 -0.46,26.41 6.07,4.7 4.7,11.54 -5.77,27.78 -8.96,13.81 -10.32,14.72 -24.59,17.15 -7.74,1.37 -16.7,5.92 -19.58,10.17 -3.64,5.01 -3.04,11.38 1.06,13.66 4.56,2.43 28.08,1.82 42.96,-1.22 6.68,-1.37 13.66,-2.43 15.79,-2.13 15.18,1.22 25.96,0.61 27.48,-1.52 1.97,-3.19 0.15,-20.19 -3.34,-30.36 -3.64,-10.47 -3.64,-15.33 0.15,-20.19 1.82,-2.28 3.64,-8.05 4.55,-14.42 1.52,-10.62 5.62,-20.64 16.7,-40.38 4.25,-7.59 5.16,-11.08 5.92,-22.01l0.91 -13.06 5.92 -1.97c3.34,-1.06 12.15,-3.04 19.73,-4.25 7.59,-1.37 15.79,-3.34 18.22,-4.56 6.53,-3.19 7.44,-2.73 12.75,4.71 7.89,11.23 12.29,13.06 29.14,12.6 12.14,-0.46 15.18,-1.06 19.43,-3.95 3.04,-2.27 4.86,-4.86 4.86,-6.98 0,-3.79 3.49,-7.59 8.65,-9.11 1.82,-0.61 3.49,-2.58 3.79,-4.4 0.76,-5.16 10.17,-4.25 25.5,2.73 16.54,7.44 27.78,8.5 45.39,3.95 7.14,-1.67 14.88,-4.86 17.61,-6.98 5.47,-4.1 6.83,-3.19 6.83,5.16 0,7.59 17.3,19.89 24.74,17.46 4.25,-1.37 2.58,-8.96 -4.1,-19.13 -6.22,-9.41 -8.5,-15.79 -6.98,-20.04 0.91,-2.58 1.22,-2.43 4.4,1.52 1.97,2.43 4.4,6.53 5.47,9.26 3.49,8.05 7.89,9.87 23.07,9.41 11.39,-0.45 14.12,-1.21 18.37,-4.4 10.32,-7.74 14.27,-21.56 10.17,-35.67 -3.64,-12.6 -6.07,-15.33 -19.73,-22.01 -6.68,-3.19 -14.27,-7.74 -17,-9.87 -4.71,-3.95 -4.71,-3.95 -5.77,-0.91 -1.22,3.95 -10.02,4.4 -12.9,0.91 -3.34,-3.95 -8.2,-2.28 -8.81,3.04 -0.91,7.89 -6.37,10.93 -6.37,3.49 0,-1.67 -2.73,-9.87 -6.07,-18.06 -6.98,-17.31 -7.44,-23.38 -2.43,-34 6.22,-13.51 19.28,-33.09 27.63,-41.75 4.4,-4.55 8.65,-10.02 9.41,-12.14 1.21,-2.88 8.35,-7.59 29.3,-18.82 15.33,-8.35 35.07,-18.98 43.87,-23.68 8.8,-4.86 22.16,-11.99 29.6,-15.94 7.59,-3.95 29.75,-15.94 49.33,-26.56 49.94,-27.02 64.97,-34.91 65.88,-34.91 1.97,0 0.61,9.26 -3.49,24.29 -12.14,44.33 -26.72,67.25 -75.14,118.4 -5.16,5.47 -20.34,21.86 -33.85,36.43 -13.36,14.57 -27.78,30.36 -32.03,34.91 -4.4,4.55 -7.89,8.8 -7.89,9.41 0,0.76 2.28,4.4 5.16,8.35 2.73,4.1 6.53,10.17 8.35,13.66 3.95,7.89 10.78,33.85 10.78,41.29 0,6.22 2.43,10.93 4.25,8.35 0.61,-0.91 8.65,-9.87 17.76,-19.73 9.26,-9.87 26.26,-28.23 37.95,-40.83 11.54,-12.45 24.9,-26.87 29.6,-31.88 4.55,-5.01 16.09,-17.61 25.65,-27.78 135.44,-145.45 112.31,-371.75 -74.99,-459.49 -23.53,-11.08 -54.8,-20.65 -78.93,-24.29 -14.12,-1.97 -64.06,-2.13 -79.69,-0.15l-0 0zm74.53 70.74c22.47,4.1 37.8,9.11 57.99,19.13 40.68,20.04 73.47,52.22 93.2,91.08 4.1,8.35 8.96,18.82 10.78,23.38 3.95,10.17 10.32,34.61 11.69,44.17l0.91 6.98 -8.04 5.31c-61.33,41.97 -122.34,84.4 -184.13,125.69 -10.78,7.28 -22.46,14.12 -25.81,15.18 -3.34,1.06 -9.41,3.04 -13.66,4.55 -11.54,4.1 -19.58,6.07 -24.44,6.07 -2.43,0 -6.83,1.37 -9.72,3.04 -13.36,7.29 -18.06,8.8 -33.39,10.47 -8.8,0.91 -29.6,4.71 -46.3,8.5 -16.7,3.79 -34.16,7.59 -38.71,8.5 -4.55,0.91 -9.56,2.28 -11.08,3.19 -3.95,2.13 -6.83,-0.91 -8.96,-8.96 -1.06,-4.4 -3.64,-8.8 -7.29,-12.45 -3.19,-3.04 -6.07,-6.83 -6.38,-8.5 -0.91,-5.01 -4.86,-3.49 -8.04,3.34 -1.67,3.49 -3.49,6.22 -4.1,6.07 -0.61,-0.15 -16.24,-15.03 -34.76,-32.94 -18.14,-17.54 -36.26,-35.09 -54.5,-52.52l6.53 -4.71c9.87,-7.14 40.38,-36.74 52.22,-50.85 18.52,-21.71 20.19,-26.87 13.36,-38.56l-3.79 -6.38 10.32 -9.71c41.59,-39.77 39.62,-37.65 38.71,-42.35 -0.61,-3.49 0,-5.01 3.95,-8.35 3.95,-3.34 4.86,-5.01 4.4,-9.11 -0.45,-4.55 1.22,-6.98 17.46,-24.74 42.05,-46.3 79.24,-66.49 140.72,-76.51 11.84,-1.97 44.63,-0.91 60.87,1.97l0 0zm175.33 215.55c-0.61,7.14 -1.82,13.66 -2.88,14.57 -0.91,0.91 -9.26,5.62 -18.52,10.48 -9.11,4.86 -23.83,12.75 -32.64,17.46 -8.8,4.71 -21.1,11.39 -27.32,14.72 -6.22,3.34 -20.64,11.08 -31.88,17.15 -108.39,58.75 -102.62,55.71 -99.73,51.46 1.37,-1.97 2.58,-5.01 2.58,-6.68 0.15,-2.28 11.84,-10.93 48.27,-35.22 26.41,-17.76 62.54,-41.9 80,-53.74 26.77,-18.23 53.61,-36.37 80.45,-54.49l1.22 5.62c0.76,3.19 0.91,11.54 0.45,18.67l0 -0zm-588.37 4.55c-1.06,2.13 -1.06,3.04 0,3.04 0.76,0 1.52,-0.91 1.67,-1.97 0,-1.21 0.3,-1.21 0.76,-0.15 0.46,1.06 2.13,1.52 3.64,1.06 1.82,-0.45 3.04,0 3.04,1.22 0,1.06 0.46,1.52 0.91,0.91 0.46,-0.45 2.13,0.3 3.65,1.52 2.43,2.13 2.43,3.04 0.76,10.63 -1.06,4.55 -2.88,9.26 -3.95,10.17 -1.21,1.06 -6.07,5.47 -10.78,9.87l-8.65 8.05 -5.77 -3.49c-3.19,-1.97 -7.14,-5.01 -8.96,-6.83 -2.73,-2.88 -2.88,-3.34 -0.76,-4.86 2.13,-1.52 2.13,-1.67 -0.15,-0.91 -5.47,1.82 -2.43,-2.58 11.38,-16.7 7.59,-7.89 14.12,-14.42 14.42,-14.42 0.15,-0.15 -0.3,1.22 -1.22,2.88l0 0zm-15.18 49.03c1.97,0.76 1.82,0.91 -0.15,0.91 -1.37,0.15 -3.34,-0.91 -4.4,-2.12 -1.06,-1.22 -2.58,-1.82 -3.49,-1.22 -0.91,0.61 -1.06,0.15 -0.46,-0.91 0.91,-1.37 1.82,-1.37 3.64,0.3 1.52,1.22 3.64,2.58 4.86,3.04l0 0zm52.52 4.25c4.1,3.79 14.88,4.25 21.25,0.91l4.4 -2.28 30.97 29.91c21.17,20.23 42.15,40.62 63.15,61.02 -20.75,-12.29 -41.48,-24.62 -62.24,-36.89 -13.36,-7.89 -32.79,-19.28 -43.26,-25.5 -10.47,-6.07 -21.86,-12.75 -25.35,-15.03l-6.38 -3.95 5.47 -5.62c6.53,-6.68 7.44,-6.83 11.99,-2.58l0 0zm296.61 74.23c0,0.76 -2.58,2.13 -5.62,2.88 -7.29,2.13 -8.5,2.13 -7.29,0 2.13,-3.34 12.9,-5.92 12.9,-2.88zm4.1 8.65c3.04,9.11 -20.55,7.43 -24.74,9.11 -5.16,1.97 -0.46,-2.58 7.44,-7.14 8.05,-4.7 16.24,-5.62 17.31,-1.97l0 0zm-34.16 7.29c-2.88,2.12 -27.32,6.07 -28.84,4.7 -0.76,-0.76 23.83,-6.68 28.54,-6.83l3.65 -0.15 -3.34 2.28zm28.54 6.37c0,0.76 -5.16,6.98 -11.54,14.12 -6.22,7.13 -13.36,15.94 -15.94,19.73 -3.95,6.07 -5.16,6.68 -9.41,6.22 -2.73,-0.15 -5.31,-1.22 -5.92,-2.13 -0.76,-1.22 -3.79,-1.06 -10.63,0.3 -5.31,1.22 -12.75,2.43 -16.7,2.73 -4.1,0.46 -7.28,1.37 -7.28,2.28 0,1.7 26.57,28.73 30.82,33.09l-5.92 -0.15c-16.09,-0.15 -20.34,-1.97 -29.3,-11.99 -4.71,-5.16 -10.93,-10.63 -13.81,-11.99 -6.07,-2.73 -7.59,-8.5 -2.28,-8.5 1.67,0 3.19,0.91 3.19,1.82 0.15,1.06 0.3,2.58 0.46,3.49 0,0.76 3.04,1.52 6.68,1.52l6.38 0 -3.79 -3.04c-4.4,-3.34 -3.04,-5.77 5.01,-8.5 3.79,-1.36 4.86,-2.58 4.86,-5.77 0.15,-4.4 0.61,-4.86 25.96,-21.1 15.33,-9.87 15.33,-9.87 30.36,-11.39 8.2,-0.76 15.94,-1.52 17,-1.67 0.91,0 1.82,0.3 1.82,0.91l0 0zm-85.46 1.52c-3.04,0.3 -7.89,0.3 -10.62,0 -2.58,-0.3 0,-0.61 5.77,-0.61 5.92,0 8.05,0.3 4.86,0.61l0 0zm-18.06 1.52c-1.52,0.3 -3.95,0.3 -5.31,0 -3.43,-1.03 8.44,-1.04 5.31,0zm55.41 3.19c-6.53,4.86 -18.67,11.08 -18.67,9.41 0,-0.91 1.06,-3.64 2.28,-6.07 1.82,-3.64 3.49,-4.55 8.65,-5.01 3.64,-0.3 7.59,-0.61 8.8,-0.76 1.52,-0.15 1.06,0.76 -1.06,2.43l0 0zm-21.71 1.37c0,0.76 -2.28,5.31 -5.01,10.17l-5.01 9.11 -14.27 4.4c-15.63,4.86 -14.42,5.16 -20.04,-4.86 -1.67,-3.19 -4.1,-4.86 -7.74,-5.46 -5.92,-1.22 -15.48,-6.53 -14.12,-7.89 1.06,-1.06 47.67,-6.07 59.05,-6.38 3.95,0 7.14,0.3 7.14,0.91l0 0zm-85.01 8.8c1.06,1.21 3.49,2.28 5.62,2.28 3.04,0 3.34,0.45 1.97,2.88 -0.76,1.67 -1.06,4.1 -0.45,5.46 0.76,2.13 0.3,2.43 -2.73,1.52 -8.65,-2.73 -19.13,-5.31 -22.16,-5.31 -1.82,0 -5.16,-1.67 -7.29,-3.64l-3.95 -3.79 5.01 -0.61c12.45,-1.52 22.16,-1.06 23.99,1.22l-0 0zm-71.95 6.53c-2.28,3.64 -17.76,9.56 -27.63,10.32 -13.21,1.06 -20.49,3.34 -23.07,6.98 -2.73,3.79 -14.12,3.79 -17.46,0 -2.43,-2.58 -2.43,-3.04 0.91,-6.07 4.55,-4.4 40.38,-11.69 59.2,-12.3 4.86,0 8.5,0.45 8.05,1.06zm81.06 13.36c0,2.28 -7.59,12.75 -9.26,12.75 -1.09,0 -9.07,-11.54 -10.47,-13.51 3.54,-0.52 19.73,-3.45 19.73,0.76zm8.35 6.68c0.61,1.97 -0.91,5.31 -4.86,10.62l-5.77 7.59 -2.58 -3.34c-2.73,-3.79 -2.88,-3.49 6.22,-13.81 4.4,-4.86 5.77,-5.16 6.98,-1.06zm92.6 0c1.38,2.07 -10.81,1.12 -12.14,1.06 1.54,-0.31 10.57,-2.07 10.93,-2.43 0.15,0 0.76,0.45 1.22,1.37zm-83.49 6.07c0.91,1.52 -11.08,19.73 -13.06,19.73 -0.45,0 -1.82,-1.06 -2.88,-2.28 -1.52,-1.82 -0.45,-3.64 5.47,-10.63 7.44,-8.5 8.8,-9.41 10.47,-6.83zm92.75 10.32c0.45,12.29 -0.91,13.51 -8.2,7.74 -7.14,-5.31 -18.52,-16.85 -17.91,-17.91 0.3,-0.45 6.22,-0.91 13.21,-0.91l12.6 0.15 0.3 10.93 0 0zm-89.11 17.31c0.15,0.76 -0.45,1.21 -1.36,1.21 -0.76,0 -1.52,-1.82 -1.37,-4.25 0,-3.64 0.15,-3.79 1.37,-1.06 0.76,1.67 1.36,3.49 1.36,4.1zm136.47 74.53c1.06,2.73 4.25,7.89 7.14,11.23 6.07,7.14 6.68,9.56 2.28,9.56 -4.25,0 -13.36,-8.5 -14.42,-13.51 -0.91,-4.55 0.3,-12.3 2.13,-12.3 0.61,0 1.82,2.28 2.88,5.01l0 0zm-120.83 12.45c-0.3,2.43 -1.06,5.16 -1.82,5.92 -2.43,2.43 -6.07,-0.46 -6.07,-4.86 0,-5.31 1.22,-6.68 5.31,-6.07 2.43,0.3 2.88,1.37 2.58,5.01zm-9.26 9.26c5.07,6.2 -16.85,7.59 -16.85,2.27 0,-2.88 1.37,-3.34 12.29,-4.4 1.37,-0.15 3.34,0.76 4.56,2.13l0 0z"/>
   <polygon class="fil4" points="2026.97,1586.03 2106.05,1586.03 2189.05,1658.1 2272.05,1586.03 2315.23,1586.03 2315.23,1745.86 2260.27,1745.86 2260.27,1663.14 2189.05,1725.11 2117.54,1663.14 2117.54,1745.86 2062.87,1745.86 2062.87,1627.25 "/>
   <polygon id="1" class="fil4" points="2399.35,1586.03 2489.08,1586.03 2596.47,1745.86 2534.78,1745.86 2505.62,1703.8 2427.67,1703.8 2397.95,1745.86 2336.54,1745.86 2392.9,1662.02 2478.42,1662.02 2464.4,1640.71 2408.04,1640.71 2424.59,1615.2 "/>
   <path id="2" class="fil4" d="M2655.64 1686.98l135.44 0 0 16.83 -173.29 0 0 42.06 198.24 0c3.37,0 6.78,-0.79 10.23,-2.38 3.46,-1.59 6.64,-3.6 9.53,-6.03 2.9,-2.43 5.28,-5.09 7.15,-7.99 1.87,-2.9 2.8,-5.66 2.8,-8.27l0 -43.46c0,-6.17 -1.07,-11.31 -3.22,-15.42 -2.15,-4.11 -5,-7.48 -8.55,-10.09 -3.55,-2.62 -7.62,-4.49 -12.2,-5.61 -4.58,-1.12 -9.3,-1.68 -14.16,-1.68l-135.15 0 0 -16.82 173.29 0 0 -42.06 -198.24 0c-3.18,0 -6.5,0.79 -9.96,2.38 -3.46,1.59 -6.63,3.65 -9.53,6.17 -2.9,2.52 -5.33,5.23 -7.29,8.13 -1.96,2.9 -2.94,5.66 -2.94,8.27l0 42.9c0,6.17 1.08,11.36 3.22,15.56 2.15,4.21 5,7.62 8.55,10.23 3.55,2.62 7.57,4.48 12.06,5.61 4.49,1.12 9.16,1.68 14.02,1.68z"/>
   <polygon id="3" class="fil4" points="2984.27,1627.81 2905.2,1627.81 2868.75,1586.03 3126.72,1586.03 3126.72,1627.81 3039.23,1627.81 3039.23,1745.86 2984.27,1745.86 "/>
   <polygon id="4" class="fil4" points="3148.03,1586.03 3239.16,1586.03 3239.16,1745.86 3184.48,1745.86 3184.48,1627.81 "/>
   <path id="5" class="fil4" d="M3480.59 1704.08l-159.55 0 0 -76.27 159.55 0 0 -41.78 -214.51 0 0 125.06c0,10.66 3.97,19.11 11.92,25.38 7.94,6.26 18.93,9.39 32.95,9.39l169.64 0 0 -41.78z"/>
   <path class="fil4" d="M918.84 1335.93l259.56 0 15.17 -37.26 -259.56 0 -30.33 -64.56 343.62 0c10.98,0 19.64,1.23 26,3.68 6.36,2.46 10.83,5.92 13.43,10.4 2.6,4.48 3.61,9.75 3.03,15.82 -0.58,6.07 -2.31,12.71 -5.2,19.93l-25.56 62.83c-3.18,8.09 -7.8,15.38 -13.87,21.88 -6.07,6.5 -12.64,12.13 -19.72,16.9 -7.08,4.77 -14.45,8.45 -22.1,11.05 -7.66,2.6 -14.66,3.9 -21.02,3.9l-204.96 0 -32.5 80.6 -84.5 0 58.5 -145.16z"/>
   <path class="fil4" d="M1662.84 1234.1c20.8,0 33.8,4.62 39,13.87 5.2,9.24 4.91,21.23 -0.87,35.97l-25.57 62.83c-6.64,16.47 -18.05,29.18 -34.23,38.13 -16.18,8.96 -35.24,13.58 -57.2,13.87l49.4 82.33 -104.86 0 -50.7 -80.6 -81.9 0 -32.5 80.6 -84.5 0 58.5 -145.16 257.39 0 15.17 -37.26 -257.39 0 -30.33 -64.56 340.58 0z"/>
   <path class="fil4" d="M2805.47 1324.66l-26.43 65 -158.16 0 -36.83 91.43 -84.5 0 63.26 -156.43 242.66 0zm-262.59 -90.56l381.75 0 -26 64.56 -325.42 0 -30.33 -64.56z"/>
   <path id="1" class="fil4" d="M3339.31 1234.1l-26 64.56 -325.85 0 -30.33 -64.56 382.18 0zm-399.08 181.56l325.42 0 -26.43 65.43 -325.42 0 26.43 -65.43zm36.83 -91l243.09 0 -26.43 65 -243.09 0 26.43 -65z"/>
   <path id="2" class="fil4" d="M3376.57 1390.09l209.29 0 -10.4 26 -267.79 0 -26.43 65 306.35 0c5.2,0 10.98,-1.23 17.33,-3.68 6.36,-2.45 12.57,-5.56 18.63,-9.32 6.07,-3.76 11.41,-7.87 16.03,-12.35 4.62,-4.48 7.8,-8.74 9.53,-12.78l26.87 -67.16c3.75,-9.53 5.27,-17.48 4.55,-23.83 -0.72,-6.36 -3.03,-11.56 -6.93,-15.6 -3.9,-4.04 -9.03,-6.93 -15.38,-8.66 -6.36,-1.73 -13.29,-2.6 -20.8,-2.6l-208.86 0 10.83 -26 267.79 0 26 -65 -306.35 0c-4.91,0 -10.54,1.23 -16.9,3.68 -6.36,2.46 -12.57,5.63 -18.63,9.53 -6.07,3.9 -11.48,8.09 -16.25,12.57 -4.77,4.48 -8.02,8.74 -9.75,12.78l-26.43 66.3c-4.05,9.53 -5.71,17.55 -4.98,24.05 0.72,6.5 3.03,11.77 6.93,15.82 3.9,4.05 8.96,6.93 15.17,8.67 6.21,1.73 13.07,2.6 20.58,2.6z"/>
   <path id="3" class="fil4" d="M3773.06 1390.09l209.29 0 -10.4 26 -267.79 0 -26.43 65 306.35 0c5.2,0 10.98,-1.23 17.33,-3.68 6.36,-2.45 12.57,-5.56 18.63,-9.32 6.07,-3.76 11.41,-7.87 16.03,-12.35 4.62,-4.48 7.8,-8.74 9.53,-12.78l26.87 -67.16c3.75,-9.53 5.27,-17.48 4.55,-23.83 -0.72,-6.36 -3.03,-11.56 -6.93,-15.6 -3.9,-4.04 -9.03,-6.93 -15.38,-8.66 -6.36,-1.73 -13.29,-2.6 -20.8,-2.6l-208.86 0 10.83 -26 267.79 0 26 -65 -306.35 0c-4.91,0 -10.54,1.23 -16.9,3.68 -6.36,2.46 -12.57,5.63 -18.63,9.53 -6.07,3.9 -11.48,8.09 -16.25,12.57 -4.77,4.48 -8.02,8.74 -9.75,12.78l-26.43 66.3c-4.05,9.53 -5.71,17.55 -4.98,24.05 0.72,6.5 3.03,11.77 6.93,15.82 3.9,4.05 8.96,6.93 15.17,8.67 6.21,1.73 13.07,2.6 20.58,2.6z"/>
   <polygon id="4" class="fil4" points="4165.21,1234.1 4306.03,1234.1 4206.37,1481.09 4121.87,1481.09 4195.54,1298.66 "/>
   <path id="5" class="fil4" d="M4651.82 1234.1c11.27,0 20.37,1.23 27.3,3.68 6.93,2.46 12.06,5.85 15.38,10.18 3.32,4.33 4.91,9.61 4.77,15.82 -0.15,6.21 -1.66,12.93 -4.55,20.15l-58.06 143.43c-6.65,16.47 -18.06,29.54 -34.23,39.22 -16.18,9.68 -35.1,14.52 -56.76,14.52l-228.36 0c-21.67,0 -36.69,-4.84 -45.06,-14.52 -8.38,-9.68 -9.24,-22.75 -2.6,-39.22l37.7 -93.59 84.93 0 -33.37 82.76 197.16 0 47.66 -117.86 -282.09 0 6.07 -14.73c5.78,-14.73 15.38,-26.72 28.82,-35.97 13.43,-9.24 31.42,-13.87 53.95,-13.87l241.36 0z"/>
   <polygon id="6" class="fil4" points="4732.41,1234.1 4853.31,1234.1 4987.2,1368.42 5041.37,1234.1 5126.73,1234.1 5027.07,1481.09 4963.37,1481.09 4827.31,1348.06 4773.58,1481.09 4689.08,1481.09 4762.75,1298.66 "/>
   <polygon id="7" class="fil4" points="5256.72,1234.1 5395.39,1234.1 5461.68,1481.09 5366.35,1481.09 5347.72,1416.09 5227.26,1416.09 5154.89,1481.09 5060,1481.09 5199.53,1351.53 5331.69,1351.53 5323.45,1318.59 5236.36,1318.59 5277.52,1279.16 "/>
   <polygon id="8" class="fil4" points="5784.07,1481.09 5488.11,1481.09 5561.78,1298.66 5531.44,1234.1 5672.27,1234.1 5598.61,1416.52 5810.06,1416.52 "/>
   <path class="fil4" d="M2591.14 1877.21l16.72 0 -26.53 -102.89 -5.52 0 -62.56 102.89 18.4 0 10.12 -16.87 45.08 0 4.29 16.87zm-7.82 -30.82l-33.27 0 23.92 -41.55 9.36 41.55z"/>
   <path id="1" class="fil4" d="M2688.05 1877.21l16.25 0 6.9 -39.1 21.62 0c23.46,0 39.41,-13.34 39.41,-33.12 0,-17.94 -12.57,-28.98 -33.27,-28.98l-33.12 0 -17.79 101.2zm25.76 -53.51l5.83 -33.27 18.71 0c11.04,0 17.17,5.52 17.17,15.33 0,11.19 -7.67,17.94 -20.39,17.94l-21.31 0z"/>
   <path id="2" class="fil4" d="M2842.61 1877.21l16.25 0 6.9 -39.1 21.62 0c23.46,0 39.41,-13.34 39.41,-33.12 0,-17.94 -12.57,-28.98 -33.27,-28.98l-33.12 0 -17.79 101.2zm25.76 -53.51l5.83 -33.27 18.71 0c11.04,0 17.17,5.52 17.17,15.33 0,11.19 -7.67,17.94 -20.39,17.94l-21.31 0z"/>
   <polygon id="3" class="fil4" points="2997.17,1877.21 3059.73,1877.21 3062.34,1862.64 3016.03,1862.64 3031.21,1776 3014.96,1776 "/>
   <polygon id="4" class="fil4" points="3140.7,1877.21 3156.95,1877.21 3174.74,1776 3158.48,1776 "/>
   <polygon id="5" class="fil4" points="3246.81,1877.21 3315.19,1877.21 3317.65,1862.64 3265.66,1862.64 3271.18,1830.59 3308.91,1830.59 3311.36,1816.48 3273.64,1816.48 3278.24,1790.57 3328.53,1790.57 3331.14,1776 3264.59,1776 "/>
   <path id="6" class="fil4" d="M3457.03 1836.26c15.95,-4.29 25.76,-16.25 25.76,-31.74 0,-17.63 -12.88,-28.52 -33.27,-28.52l-33.12 0 -17.79 101.2 16.25 0 6.9 -39.1 17.94 0 23.31 39.1 17.79 0 -23.77 -40.94zm-26.83 -45.84l18.71 0c11.04,0 17.17,5.52 17.17,15.33 0,11.04 -7.67,17.94 -20.39,17.94l-21.31 0 5.83 -33.27z"/>
  </g>
 </g>
</svg>
